<?xml version="1.0" encoding="utf-8"?>
<svg xmlns="http://www.w3.org/2000/svg" xmlns:xlink="http://www.w3.org/1999/xlink" width="600" height="400" viewBox="0 0 2400 1600">
<defs>
  <clipPath id="clip210">
    <rect x="0" y="0" width="2400" height="1600"/>
  </clipPath>
</defs>
<path clip-path="url(#clip210)" d="
M0 1600 L2400 1600 L2400 0 L0 0  Z
  " fill="#ffffff" fill-rule="evenodd" fill-opacity="1"/>
<defs>
  <clipPath id="clip211">
    <rect x="480" y="0" width="1681" height="1600"/>
  </clipPath>
</defs>
<path clip-path="url(#clip210)" d="
M238.13 1423.18 L2352.76 1423.18 L2352.76 47.2441 L238.13 47.2441  Z
  " fill="#ffffff" fill-rule="evenodd" fill-opacity="1"/>
<defs>
  <clipPath id="clip212">
    <rect x="238" y="47" width="2116" height="1377"/>
  </clipPath>
</defs>
<polyline clip-path="url(#clip212)" style="stroke:#000000; stroke-width:2; stroke-opacity:0.1; fill:none" points="
  297.978,1423.18 297.978,47.2441 
  "/>
<polyline clip-path="url(#clip212)" style="stroke:#000000; stroke-width:2; stroke-opacity:0.1; fill:none" points="
  796.71,1423.18 796.71,47.2441 
  "/>
<polyline clip-path="url(#clip212)" style="stroke:#000000; stroke-width:2; stroke-opacity:0.1; fill:none" points="
  1295.44,1423.18 1295.44,47.2441 
  "/>
<polyline clip-path="url(#clip212)" style="stroke:#000000; stroke-width:2; stroke-opacity:0.1; fill:none" points="
  1794.18,1423.18 1794.18,47.2441 
  "/>
<polyline clip-path="url(#clip212)" style="stroke:#000000; stroke-width:2; stroke-opacity:0.1; fill:none" points="
  2292.91,1423.18 2292.91,47.2441 
  "/>
<polyline clip-path="url(#clip212)" style="stroke:#000000; stroke-width:2; stroke-opacity:0.1; fill:none" points="
  238.13,1388.47 2352.76,1388.47 
  "/>
<polyline clip-path="url(#clip212)" style="stroke:#000000; stroke-width:2; stroke-opacity:0.1; fill:none" points="
  238.13,1062.9 2352.76,1062.9 
  "/>
<polyline clip-path="url(#clip212)" style="stroke:#000000; stroke-width:2; stroke-opacity:0.1; fill:none" points="
  238.13,737.326 2352.76,737.326 
  "/>
<polyline clip-path="url(#clip212)" style="stroke:#000000; stroke-width:2; stroke-opacity:0.1; fill:none" points="
  238.13,411.756 2352.76,411.756 
  "/>
<polyline clip-path="url(#clip212)" style="stroke:#000000; stroke-width:2; stroke-opacity:0.1; fill:none" points="
  238.13,86.1857 2352.76,86.1857 
  "/>
<polyline clip-path="url(#clip210)" style="stroke:#000000; stroke-width:4; stroke-opacity:1; fill:none" points="
  238.13,1423.18 2352.76,1423.18 
  "/>
<polyline clip-path="url(#clip210)" style="stroke:#000000; stroke-width:4; stroke-opacity:1; fill:none" points="
  238.13,1423.18 238.13,47.2441 
  "/>
<polyline clip-path="url(#clip210)" style="stroke:#000000; stroke-width:4; stroke-opacity:1; fill:none" points="
  297.978,1423.18 297.978,1406.67 
  "/>
<polyline clip-path="url(#clip210)" style="stroke:#000000; stroke-width:4; stroke-opacity:1; fill:none" points="
  796.71,1423.18 796.71,1406.67 
  "/>
<polyline clip-path="url(#clip210)" style="stroke:#000000; stroke-width:4; stroke-opacity:1; fill:none" points="
  1295.44,1423.18 1295.44,1406.67 
  "/>
<polyline clip-path="url(#clip210)" style="stroke:#000000; stroke-width:4; stroke-opacity:1; fill:none" points="
  1794.18,1423.18 1794.18,1406.67 
  "/>
<polyline clip-path="url(#clip210)" style="stroke:#000000; stroke-width:4; stroke-opacity:1; fill:none" points="
  2292.91,1423.18 2292.91,1406.67 
  "/>
<polyline clip-path="url(#clip210)" style="stroke:#000000; stroke-width:4; stroke-opacity:1; fill:none" points="
  238.13,1388.47 263.506,1388.47 
  "/>
<polyline clip-path="url(#clip210)" style="stroke:#000000; stroke-width:4; stroke-opacity:1; fill:none" points="
  238.13,1062.9 263.506,1062.9 
  "/>
<polyline clip-path="url(#clip210)" style="stroke:#000000; stroke-width:4; stroke-opacity:1; fill:none" points="
  238.13,737.326 263.506,737.326 
  "/>
<polyline clip-path="url(#clip210)" style="stroke:#000000; stroke-width:4; stroke-opacity:1; fill:none" points="
  238.13,411.756 263.506,411.756 
  "/>
<polyline clip-path="url(#clip210)" style="stroke:#000000; stroke-width:4; stroke-opacity:1; fill:none" points="
  238.13,86.1857 263.506,86.1857 
  "/>
<path clip-path="url(#clip210)" d="M 0 0 M265.987 1445.17 Q262.376 1445.17 260.548 1448.74 Q258.742 1452.28 258.742 1459.41 Q258.742 1466.51 260.548 1470.08 Q262.376 1473.62 265.987 1473.62 Q269.622 1473.62 271.427 1470.08 Q273.256 1466.51 273.256 1459.41 Q273.256 1452.28 271.427 1448.74 Q269.622 1445.17 265.987 1445.17 M265.987 1441.47 Q271.798 1441.47 274.853 1446.07 Q277.932 1450.66 277.932 1459.41 Q277.932 1468.13 274.853 1472.74 Q271.798 1477.32 265.987 1477.32 Q260.177 1477.32 257.099 1472.74 Q254.043 1468.13 254.043 1459.41 Q254.043 1450.66 257.099 1446.07 Q260.177 1441.47 265.987 1441.47 Z" fill="#000000" fill-rule="evenodd" fill-opacity="1" /><path clip-path="url(#clip210)" d="M 0 0 M283.001 1470.77 L287.885 1470.77 L287.885 1476.65 L283.001 1476.65 L283.001 1470.77 Z" fill="#000000" fill-rule="evenodd" fill-opacity="1" /><path clip-path="url(#clip210)" d="M 0 0 M302.955 1445.17 Q299.344 1445.17 297.515 1448.74 Q295.709 1452.28 295.709 1459.41 Q295.709 1466.51 297.515 1470.08 Q299.344 1473.62 302.955 1473.62 Q306.589 1473.62 308.395 1470.08 Q310.223 1466.51 310.223 1459.41 Q310.223 1452.28 308.395 1448.74 Q306.589 1445.17 302.955 1445.17 M302.955 1441.47 Q308.765 1441.47 311.82 1446.07 Q314.899 1450.66 314.899 1459.41 Q314.899 1468.13 311.82 1472.74 Q308.765 1477.32 302.955 1477.32 Q297.145 1477.32 294.066 1472.74 Q291.01 1468.13 291.01 1459.41 Q291.01 1450.66 294.066 1446.07 Q297.145 1441.47 302.955 1441.47 Z" fill="#000000" fill-rule="evenodd" fill-opacity="1" /><path clip-path="url(#clip210)" d="M 0 0 M329.969 1445.17 Q326.357 1445.17 324.529 1448.74 Q322.723 1452.28 322.723 1459.41 Q322.723 1466.51 324.529 1470.08 Q326.357 1473.62 329.969 1473.62 Q333.603 1473.62 335.408 1470.08 Q337.237 1466.51 337.237 1459.41 Q337.237 1452.28 335.408 1448.74 Q333.603 1445.17 329.969 1445.17 M329.969 1441.47 Q335.779 1441.47 338.834 1446.07 Q341.913 1450.66 341.913 1459.41 Q341.913 1468.13 338.834 1472.74 Q335.779 1477.32 329.969 1477.32 Q324.158 1477.32 321.08 1472.74 Q318.024 1468.13 318.024 1459.41 Q318.024 1450.66 321.08 1446.07 Q324.158 1441.47 329.969 1441.47 Z" fill="#000000" fill-rule="evenodd" fill-opacity="1" /><path clip-path="url(#clip210)" d="M 0 0 M766.016 1445.17 Q762.405 1445.17 760.576 1448.74 Q758.771 1452.28 758.771 1459.41 Q758.771 1466.51 760.576 1470.08 Q762.405 1473.62 766.016 1473.62 Q769.65 1473.62 771.456 1470.08 Q773.285 1466.51 773.285 1459.41 Q773.285 1452.28 771.456 1448.74 Q769.65 1445.17 766.016 1445.17 M766.016 1441.47 Q771.826 1441.47 774.882 1446.07 Q777.961 1450.66 777.961 1459.41 Q777.961 1468.13 774.882 1472.74 Q771.826 1477.32 766.016 1477.32 Q760.206 1477.32 757.127 1472.74 Q754.072 1468.13 754.072 1459.41 Q754.072 1450.66 757.127 1446.07 Q760.206 1441.47 766.016 1441.47 Z" fill="#000000" fill-rule="evenodd" fill-opacity="1" /><path clip-path="url(#clip210)" d="M 0 0 M783.03 1470.77 L787.914 1470.77 L787.914 1476.65 L783.03 1476.65 L783.03 1470.77 Z" fill="#000000" fill-rule="evenodd" fill-opacity="1" /><path clip-path="url(#clip210)" d="M 0 0 M797.011 1472.72 L813.331 1472.72 L813.331 1476.65 L791.386 1476.65 L791.386 1472.72 Q794.048 1469.96 798.632 1465.33 Q803.238 1460.68 804.419 1459.34 Q806.664 1456.81 807.544 1455.08 Q808.447 1453.32 808.447 1451.63 Q808.447 1448.87 806.502 1447.14 Q804.581 1445.4 801.479 1445.4 Q799.28 1445.4 796.826 1446.17 Q794.396 1446.93 791.618 1448.48 L791.618 1443.76 Q794.442 1442.62 796.896 1442.05 Q799.349 1441.47 801.386 1441.47 Q806.757 1441.47 809.951 1444.15 Q813.146 1446.84 813.146 1451.33 Q813.146 1453.46 812.335 1455.38 Q811.548 1457.28 809.442 1459.87 Q808.863 1460.54 805.761 1463.76 Q802.66 1466.95 797.011 1472.72 Z" fill="#000000" fill-rule="evenodd" fill-opacity="1" /><path clip-path="url(#clip210)" d="M 0 0 M818.446 1442.09 L836.803 1442.09 L836.803 1446.03 L822.729 1446.03 L822.729 1454.5 Q823.747 1454.15 824.766 1453.99 Q825.784 1453.8 826.803 1453.8 Q832.59 1453.8 835.97 1456.98 Q839.349 1460.15 839.349 1465.56 Q839.349 1471.14 835.877 1474.24 Q832.405 1477.32 826.085 1477.32 Q823.909 1477.32 821.641 1476.95 Q819.396 1476.58 816.988 1475.84 L816.988 1471.14 Q819.071 1472.28 821.294 1472.83 Q823.516 1473.39 825.993 1473.39 Q829.997 1473.39 832.335 1471.28 Q834.673 1469.18 834.673 1465.56 Q834.673 1461.95 832.335 1459.85 Q829.997 1457.74 825.993 1457.74 Q824.118 1457.74 822.243 1458.16 Q820.391 1458.57 818.446 1459.45 L818.446 1442.09 Z" fill="#000000" fill-rule="evenodd" fill-opacity="1" /><path clip-path="url(#clip210)" d="M 0 0 M1263.95 1445.17 Q1260.34 1445.17 1258.51 1448.74 Q1256.7 1452.28 1256.7 1459.41 Q1256.7 1466.51 1258.51 1470.08 Q1260.34 1473.62 1263.95 1473.62 Q1267.58 1473.62 1269.39 1470.08 Q1271.22 1466.51 1271.22 1459.41 Q1271.22 1452.28 1269.39 1448.74 Q1267.58 1445.17 1263.95 1445.17 M1263.95 1441.47 Q1269.76 1441.47 1272.82 1446.07 Q1275.89 1450.66 1275.89 1459.41 Q1275.89 1468.13 1272.82 1472.74 Q1269.76 1477.32 1263.95 1477.32 Q1258.14 1477.32 1255.06 1472.74 Q1252.01 1468.13 1252.01 1459.41 Q1252.01 1450.66 1255.06 1446.07 Q1258.14 1441.47 1263.95 1441.47 Z" fill="#000000" fill-rule="evenodd" fill-opacity="1" /><path clip-path="url(#clip210)" d="M 0 0 M1280.96 1470.77 L1285.85 1470.77 L1285.85 1476.65 L1280.96 1476.65 L1280.96 1470.77 Z" fill="#000000" fill-rule="evenodd" fill-opacity="1" /><path clip-path="url(#clip210)" d="M 0 0 M1290.96 1442.09 L1309.32 1442.09 L1309.32 1446.03 L1295.25 1446.03 L1295.25 1454.5 Q1296.26 1454.15 1297.28 1453.99 Q1298.3 1453.8 1299.32 1453.8 Q1305.11 1453.8 1308.49 1456.98 Q1311.87 1460.15 1311.87 1465.56 Q1311.87 1471.14 1308.39 1474.24 Q1304.92 1477.32 1298.6 1477.32 Q1296.43 1477.32 1294.16 1476.95 Q1291.91 1476.58 1289.51 1475.84 L1289.51 1471.14 Q1291.59 1472.28 1293.81 1472.83 Q1296.03 1473.39 1298.51 1473.39 Q1302.51 1473.39 1304.85 1471.28 Q1307.19 1469.18 1307.19 1465.56 Q1307.19 1461.95 1304.85 1459.85 Q1302.51 1457.74 1298.51 1457.74 Q1296.64 1457.74 1294.76 1458.16 Q1292.91 1458.57 1290.96 1459.45 L1290.96 1442.09 Z" fill="#000000" fill-rule="evenodd" fill-opacity="1" /><path clip-path="url(#clip210)" d="M 0 0 M1326.94 1445.17 Q1323.32 1445.17 1321.5 1448.74 Q1319.69 1452.28 1319.69 1459.41 Q1319.69 1466.51 1321.5 1470.08 Q1323.32 1473.62 1326.94 1473.62 Q1330.57 1473.62 1332.38 1470.08 Q1334.2 1466.51 1334.2 1459.41 Q1334.2 1452.28 1332.38 1448.74 Q1330.57 1445.17 1326.94 1445.17 M1326.94 1441.47 Q1332.75 1441.47 1335.8 1446.07 Q1338.88 1450.66 1338.88 1459.41 Q1338.88 1468.13 1335.8 1472.74 Q1332.75 1477.32 1326.94 1477.32 Q1321.13 1477.32 1318.05 1472.74 Q1314.99 1468.13 1314.99 1459.41 Q1314.99 1450.66 1318.05 1446.07 Q1321.13 1441.47 1326.94 1441.47 Z" fill="#000000" fill-rule="evenodd" fill-opacity="1" /><path clip-path="url(#clip210)" d="M 0 0 M1763.13 1445.17 Q1759.52 1445.17 1757.69 1448.74 Q1755.89 1452.28 1755.89 1459.41 Q1755.89 1466.51 1757.69 1470.08 Q1759.52 1473.62 1763.13 1473.62 Q1766.77 1473.62 1768.57 1470.08 Q1770.4 1466.51 1770.4 1459.41 Q1770.4 1452.28 1768.57 1448.74 Q1766.77 1445.17 1763.13 1445.17 M1763.13 1441.47 Q1768.94 1441.47 1772 1446.07 Q1775.08 1450.66 1775.08 1459.41 Q1775.08 1468.13 1772 1472.74 Q1768.94 1477.32 1763.13 1477.32 Q1757.32 1477.32 1754.25 1472.74 Q1751.19 1468.13 1751.19 1459.41 Q1751.19 1450.66 1754.25 1446.07 Q1757.32 1441.47 1763.13 1441.47 Z" fill="#000000" fill-rule="evenodd" fill-opacity="1" /><path clip-path="url(#clip210)" d="M 0 0 M1780.15 1470.77 L1785.03 1470.77 L1785.03 1476.65 L1780.15 1476.65 L1780.15 1470.77 Z" fill="#000000" fill-rule="evenodd" fill-opacity="1" /><path clip-path="url(#clip210)" d="M 0 0 M1788.92 1442.09 L1811.14 1442.09 L1811.14 1444.08 L1798.6 1476.65 L1793.71 1476.65 L1805.52 1446.03 L1788.92 1446.03 L1788.92 1442.09 Z" fill="#000000" fill-rule="evenodd" fill-opacity="1" /><path clip-path="url(#clip210)" d="M 0 0 M1816.26 1442.09 L1834.62 1442.09 L1834.62 1446.03 L1820.54 1446.03 L1820.54 1454.5 Q1821.56 1454.15 1822.58 1453.99 Q1823.6 1453.8 1824.62 1453.8 Q1830.4 1453.8 1833.78 1456.98 Q1837.16 1460.15 1837.16 1465.56 Q1837.16 1471.14 1833.69 1474.24 Q1830.22 1477.32 1823.9 1477.32 Q1821.72 1477.32 1819.45 1476.95 Q1817.21 1476.58 1814.8 1475.84 L1814.8 1471.14 Q1816.88 1472.28 1819.11 1472.83 Q1821.33 1473.39 1823.8 1473.39 Q1827.81 1473.39 1830.15 1471.28 Q1832.49 1469.18 1832.49 1465.56 Q1832.49 1461.95 1830.15 1459.85 Q1827.81 1457.74 1823.8 1457.74 Q1821.93 1457.74 1820.05 1458.16 Q1818.2 1458.57 1816.26 1459.45 L1816.26 1442.09 Z" fill="#000000" fill-rule="evenodd" fill-opacity="1" /><path clip-path="url(#clip210)" d="M 0 0 M2251.3 1472.72 L2258.94 1472.72 L2258.94 1446.35 L2250.63 1448.02 L2250.63 1443.76 L2258.89 1442.09 L2263.57 1442.09 L2263.57 1472.72 L2271.21 1472.72 L2271.21 1476.65 L2251.3 1476.65 L2251.3 1472.72 Z" fill="#000000" fill-rule="evenodd" fill-opacity="1" /><path clip-path="url(#clip210)" d="M 0 0 M2276.28 1470.77 L2281.16 1470.77 L2281.16 1476.65 L2276.28 1476.65 L2276.28 1470.77 Z" fill="#000000" fill-rule="evenodd" fill-opacity="1" /><path clip-path="url(#clip210)" d="M 0 0 M2296.23 1445.17 Q2292.62 1445.17 2290.79 1448.74 Q2288.98 1452.28 2288.98 1459.41 Q2288.98 1466.51 2290.79 1470.08 Q2292.62 1473.62 2296.23 1473.62 Q2299.86 1473.62 2301.67 1470.08 Q2303.5 1466.51 2303.5 1459.41 Q2303.5 1452.28 2301.67 1448.74 Q2299.86 1445.17 2296.23 1445.17 M2296.23 1441.47 Q2302.04 1441.47 2305.1 1446.07 Q2308.17 1450.66 2308.17 1459.41 Q2308.17 1468.13 2305.1 1472.74 Q2302.04 1477.32 2296.23 1477.32 Q2290.42 1477.32 2287.34 1472.74 Q2284.29 1468.13 2284.29 1459.41 Q2284.29 1450.66 2287.34 1446.07 Q2290.42 1441.47 2296.23 1441.47 Z" fill="#000000" fill-rule="evenodd" fill-opacity="1" /><path clip-path="url(#clip210)" d="M 0 0 M2323.24 1445.17 Q2319.63 1445.17 2317.8 1448.74 Q2316 1452.28 2316 1459.41 Q2316 1466.51 2317.8 1470.08 Q2319.63 1473.62 2323.24 1473.62 Q2326.88 1473.62 2328.68 1470.08 Q2330.51 1466.51 2330.51 1459.41 Q2330.51 1452.28 2328.68 1448.74 Q2326.88 1445.17 2323.24 1445.17 M2323.24 1441.47 Q2329.05 1441.47 2332.11 1446.07 Q2335.19 1450.66 2335.19 1459.41 Q2335.19 1468.13 2332.11 1472.74 Q2329.05 1477.32 2323.24 1477.32 Q2317.43 1477.32 2314.35 1472.74 Q2311.3 1468.13 2311.3 1459.41 Q2311.3 1450.66 2314.35 1446.07 Q2317.43 1441.47 2323.24 1441.47 Z" fill="#000000" fill-rule="evenodd" fill-opacity="1" /><path clip-path="url(#clip210)" d="M 0 0 M138.205 1374.27 Q134.593 1374.27 132.765 1377.83 Q130.959 1381.37 130.959 1388.5 Q130.959 1395.61 132.765 1399.17 Q134.593 1402.71 138.205 1402.71 Q141.839 1402.71 143.644 1399.17 Q145.473 1395.61 145.473 1388.5 Q145.473 1381.37 143.644 1377.83 Q141.839 1374.27 138.205 1374.27 M138.205 1370.56 Q144.015 1370.56 147.07 1375.17 Q150.149 1379.75 150.149 1388.5 Q150.149 1397.23 147.07 1401.83 Q144.015 1406.42 138.205 1406.42 Q132.394 1406.42 129.316 1401.83 Q126.26 1397.23 126.26 1388.5 Q126.26 1379.75 129.316 1375.17 Q132.394 1370.56 138.205 1370.56 Z" fill="#000000" fill-rule="evenodd" fill-opacity="1" /><path clip-path="url(#clip210)" d="M 0 0 M155.218 1399.87 L160.103 1399.87 L160.103 1405.75 L155.218 1405.75 L155.218 1399.87 Z" fill="#000000" fill-rule="evenodd" fill-opacity="1" /><path clip-path="url(#clip210)" d="M 0 0 M175.172 1374.27 Q171.561 1374.27 169.732 1377.83 Q167.927 1381.37 167.927 1388.5 Q167.927 1395.61 169.732 1399.17 Q171.561 1402.71 175.172 1402.71 Q178.806 1402.71 180.612 1399.17 Q182.44 1395.61 182.44 1388.5 Q182.44 1381.37 180.612 1377.83 Q178.806 1374.27 175.172 1374.27 M175.172 1370.56 Q180.982 1370.56 184.038 1375.17 Q187.116 1379.75 187.116 1388.5 Q187.116 1397.23 184.038 1401.83 Q180.982 1406.42 175.172 1406.42 Q169.362 1406.42 166.283 1401.83 Q163.228 1397.23 163.228 1388.5 Q163.228 1379.75 166.283 1375.17 Q169.362 1370.56 175.172 1370.56 Z" fill="#000000" fill-rule="evenodd" fill-opacity="1" /><path clip-path="url(#clip210)" d="M 0 0 M202.186 1374.27 Q198.575 1374.27 196.746 1377.83 Q194.94 1381.37 194.94 1388.5 Q194.94 1395.61 196.746 1399.17 Q198.575 1402.71 202.186 1402.71 Q205.82 1402.71 207.625 1399.17 Q209.454 1395.61 209.454 1388.5 Q209.454 1381.37 207.625 1377.83 Q205.82 1374.27 202.186 1374.27 M202.186 1370.56 Q207.996 1370.56 211.051 1375.17 Q214.13 1379.75 214.13 1388.5 Q214.13 1397.23 211.051 1401.83 Q207.996 1406.42 202.186 1406.42 Q196.376 1406.42 193.297 1401.83 Q190.241 1397.23 190.241 1388.5 Q190.241 1379.75 193.297 1375.17 Q196.376 1370.56 202.186 1370.56 Z" fill="#000000" fill-rule="evenodd" fill-opacity="1" /><path clip-path="url(#clip210)" d="M 0 0 M140.797 1048.7 Q137.186 1048.7 135.357 1052.26 Q133.552 1055.8 133.552 1062.93 Q133.552 1070.04 135.357 1073.6 Q137.186 1077.14 140.797 1077.14 Q144.431 1077.14 146.237 1073.6 Q148.066 1070.04 148.066 1062.93 Q148.066 1055.8 146.237 1052.26 Q144.431 1048.7 140.797 1048.7 M140.797 1044.99 Q146.607 1044.99 149.663 1049.6 Q152.741 1054.18 152.741 1062.93 Q152.741 1071.66 149.663 1076.26 Q146.607 1080.85 140.797 1080.85 Q134.987 1080.85 131.908 1076.26 Q128.853 1071.66 128.853 1062.93 Q128.853 1054.18 131.908 1049.6 Q134.987 1044.99 140.797 1044.99 Z" fill="#000000" fill-rule="evenodd" fill-opacity="1" /><path clip-path="url(#clip210)" d="M 0 0 M157.811 1074.3 L162.695 1074.3 L162.695 1080.18 L157.811 1080.18 L157.811 1074.3 Z" fill="#000000" fill-rule="evenodd" fill-opacity="1" /><path clip-path="url(#clip210)" d="M 0 0 M171.792 1076.24 L188.112 1076.24 L188.112 1080.18 L166.167 1080.18 L166.167 1076.24 Q168.829 1073.49 173.413 1068.86 Q178.019 1064.2 179.2 1062.86 Q181.445 1060.34 182.325 1058.6 Q183.227 1056.84 183.227 1055.15 Q183.227 1052.4 181.283 1050.66 Q179.362 1048.93 176.26 1048.93 Q174.061 1048.93 171.607 1049.69 Q169.177 1050.45 166.399 1052.01 L166.399 1047.28 Q169.223 1046.15 171.677 1045.57 Q174.13 1044.99 176.167 1044.99 Q181.538 1044.99 184.732 1047.68 Q187.926 1050.36 187.926 1054.85 Q187.926 1056.98 187.116 1058.9 Q186.329 1060.8 184.223 1063.39 Q183.644 1064.07 180.542 1067.28 Q177.44 1070.48 171.792 1076.24 Z" fill="#000000" fill-rule="evenodd" fill-opacity="1" /><path clip-path="url(#clip210)" d="M 0 0 M193.227 1045.62 L211.584 1045.62 L211.584 1049.55 L197.51 1049.55 L197.51 1058.02 Q198.528 1057.68 199.547 1057.51 Q200.565 1057.33 201.584 1057.33 Q207.371 1057.33 210.75 1060.5 Q214.13 1063.67 214.13 1069.09 Q214.13 1074.67 210.658 1077.77 Q207.186 1080.85 200.866 1080.85 Q198.69 1080.85 196.422 1080.48 Q194.176 1080.11 191.769 1079.37 L191.769 1074.67 Q193.852 1075.8 196.075 1076.36 Q198.297 1076.91 200.774 1076.91 Q204.778 1076.91 207.116 1074.81 Q209.454 1072.7 209.454 1069.09 Q209.454 1065.48 207.116 1063.37 Q204.778 1061.26 200.774 1061.26 Q198.899 1061.26 197.024 1061.68 Q195.172 1062.1 193.227 1062.98 L193.227 1045.62 Z" fill="#000000" fill-rule="evenodd" fill-opacity="1" /><path clip-path="url(#clip210)" d="M 0 0 M139.2 723.125 Q135.589 723.125 133.76 726.69 Q131.955 730.231 131.955 737.361 Q131.955 744.467 133.76 748.032 Q135.589 751.574 139.2 751.574 Q142.834 751.574 144.64 748.032 Q146.468 744.467 146.468 737.361 Q146.468 730.231 144.64 726.69 Q142.834 723.125 139.2 723.125 M139.2 719.421 Q145.01 719.421 148.066 724.028 Q151.144 728.611 151.144 737.361 Q151.144 746.088 148.066 750.694 Q145.01 755.278 139.2 755.278 Q133.39 755.278 130.311 750.694 Q127.256 746.088 127.256 737.361 Q127.256 728.611 130.311 724.028 Q133.39 719.421 139.2 719.421 Z" fill="#000000" fill-rule="evenodd" fill-opacity="1" /><path clip-path="url(#clip210)" d="M 0 0 M156.214 748.727 L161.098 748.727 L161.098 754.606 L156.214 754.606 L156.214 748.727 Z" fill="#000000" fill-rule="evenodd" fill-opacity="1" /><path clip-path="url(#clip210)" d="M 0 0 M166.214 720.046 L184.57 720.046 L184.57 723.981 L170.496 723.981 L170.496 732.454 Q171.515 732.106 172.533 731.944 Q173.552 731.759 174.57 731.759 Q180.357 731.759 183.737 734.93 Q187.116 738.102 187.116 743.518 Q187.116 749.097 183.644 752.199 Q180.172 755.278 173.852 755.278 Q171.677 755.278 169.408 754.907 Q167.163 754.537 164.755 753.796 L164.755 749.097 Q166.839 750.231 169.061 750.787 Q171.283 751.342 173.76 751.342 Q177.765 751.342 180.102 749.236 Q182.44 747.129 182.44 743.518 Q182.44 739.907 180.102 737.801 Q177.765 735.694 173.76 735.694 Q171.885 735.694 170.01 736.111 Q168.158 736.528 166.214 737.407 L166.214 720.046 Z" fill="#000000" fill-rule="evenodd" fill-opacity="1" /><path clip-path="url(#clip210)" d="M 0 0 M202.186 723.125 Q198.575 723.125 196.746 726.69 Q194.94 730.231 194.94 737.361 Q194.94 744.467 196.746 748.032 Q198.575 751.574 202.186 751.574 Q205.82 751.574 207.625 748.032 Q209.454 744.467 209.454 737.361 Q209.454 730.231 207.625 726.69 Q205.82 723.125 202.186 723.125 M202.186 719.421 Q207.996 719.421 211.051 724.028 Q214.13 728.611 214.13 737.361 Q214.13 746.088 211.051 750.694 Q207.996 755.278 202.186 755.278 Q196.376 755.278 193.297 750.694 Q190.241 746.088 190.241 737.361 Q190.241 728.611 193.297 724.028 Q196.376 719.421 202.186 719.421 Z" fill="#000000" fill-rule="evenodd" fill-opacity="1" /><path clip-path="url(#clip210)" d="M 0 0 M140.103 397.555 Q136.492 397.555 134.663 401.119 Q132.857 404.661 132.857 411.791 Q132.857 418.897 134.663 422.462 Q136.492 426.004 140.103 426.004 Q143.737 426.004 145.542 422.462 Q147.371 418.897 147.371 411.791 Q147.371 404.661 145.542 401.119 Q143.737 397.555 140.103 397.555 M140.103 393.851 Q145.913 393.851 148.968 398.457 Q152.047 403.041 152.047 411.791 Q152.047 420.517 148.968 425.124 Q145.913 429.707 140.103 429.707 Q134.293 429.707 131.214 425.124 Q128.158 420.517 128.158 411.791 Q128.158 403.041 131.214 398.457 Q134.293 393.851 140.103 393.851 Z" fill="#000000" fill-rule="evenodd" fill-opacity="1" /><path clip-path="url(#clip210)" d="M 0 0 M157.116 423.156 L162.001 423.156 L162.001 429.036 L157.116 429.036 L157.116 423.156 Z" fill="#000000" fill-rule="evenodd" fill-opacity="1" /><path clip-path="url(#clip210)" d="M 0 0 M165.89 394.476 L188.112 394.476 L188.112 396.467 L175.565 429.036 L170.681 429.036 L182.487 398.411 L165.89 398.411 L165.89 394.476 Z" fill="#000000" fill-rule="evenodd" fill-opacity="1" /><path clip-path="url(#clip210)" d="M 0 0 M193.227 394.476 L211.584 394.476 L211.584 398.411 L197.51 398.411 L197.51 406.883 Q198.528 406.536 199.547 406.374 Q200.565 406.189 201.584 406.189 Q207.371 406.189 210.75 409.36 Q214.13 412.531 214.13 417.948 Q214.13 423.527 210.658 426.629 Q207.186 429.707 200.866 429.707 Q198.69 429.707 196.422 429.337 Q194.176 428.967 191.769 428.226 L191.769 423.527 Q193.852 424.661 196.075 425.217 Q198.297 425.772 200.774 425.772 Q204.778 425.772 207.116 423.666 Q209.454 421.559 209.454 417.948 Q209.454 414.337 207.116 412.231 Q204.778 410.124 200.774 410.124 Q198.899 410.124 197.024 410.541 Q195.172 410.957 193.227 411.837 L193.227 394.476 Z" fill="#000000" fill-rule="evenodd" fill-opacity="1" /><path clip-path="url(#clip210)" d="M 0 0 M130.242 99.5305 L137.88 99.5305 L137.88 73.1649 L129.57 74.8316 L129.57 70.5723 L137.834 68.9057 L142.51 68.9057 L142.51 99.5305 L150.149 99.5305 L150.149 103.466 L130.242 103.466 L130.242 99.5305 Z" fill="#000000" fill-rule="evenodd" fill-opacity="1" /><path clip-path="url(#clip210)" d="M 0 0 M155.218 97.5861 L160.103 97.5861 L160.103 103.466 L155.218 103.466 L155.218 97.5861 Z" fill="#000000" fill-rule="evenodd" fill-opacity="1" /><path clip-path="url(#clip210)" d="M 0 0 M175.172 71.9844 Q171.561 71.9844 169.732 75.5492 Q167.927 79.0908 167.927 86.2204 Q167.927 93.3268 169.732 96.8916 Q171.561 100.433 175.172 100.433 Q178.806 100.433 180.612 96.8916 Q182.44 93.3268 182.44 86.2204 Q182.44 79.0908 180.612 75.5492 Q178.806 71.9844 175.172 71.9844 M175.172 68.2807 Q180.982 68.2807 184.038 72.8871 Q187.116 77.4704 187.116 86.2204 Q187.116 94.9472 184.038 99.5537 Q180.982 104.137 175.172 104.137 Q169.362 104.137 166.283 99.5537 Q163.228 94.9472 163.228 86.2204 Q163.228 77.4704 166.283 72.8871 Q169.362 68.2807 175.172 68.2807 Z" fill="#000000" fill-rule="evenodd" fill-opacity="1" /><path clip-path="url(#clip210)" d="M 0 0 M202.186 71.9844 Q198.575 71.9844 196.746 75.5492 Q194.94 79.0908 194.94 86.2204 Q194.94 93.3268 196.746 96.8916 Q198.575 100.433 202.186 100.433 Q205.82 100.433 207.625 96.8916 Q209.454 93.3268 209.454 86.2204 Q209.454 79.0908 207.625 75.5492 Q205.82 71.9844 202.186 71.9844 M202.186 68.2807 Q207.996 68.2807 211.051 72.8871 Q214.13 77.4704 214.13 86.2204 Q214.13 94.9472 211.051 99.5537 Q207.996 104.137 202.186 104.137 Q196.376 104.137 193.297 99.5537 Q190.241 94.9472 190.241 86.2204 Q190.241 77.4704 193.297 72.8871 Q196.376 68.2807 202.186 68.2807 Z" fill="#000000" fill-rule="evenodd" fill-opacity="1" /><path clip-path="url(#clip210)" d="M 0 0 M1294.5 1510.27 L1294.5 1520.4 L1306.57 1520.4 L1306.57 1524.95 L1294.5 1524.95 L1294.5 1544.3 Q1294.5 1548.66 1295.68 1549.9 Q1296.89 1551.14 1300.55 1551.14 L1306.57 1551.14 L1306.57 1556.04 L1300.55 1556.04 Q1293.77 1556.04 1291.19 1553.53 Q1288.62 1550.98 1288.62 1544.3 L1288.62 1524.95 L1284.32 1524.95 L1284.32 1520.4 L1288.62 1520.4 L1288.62 1510.27 L1294.5 1510.27 Z" fill="#000000" fill-rule="evenodd" fill-opacity="1" /><path clip-path="url(#clip210)" d="M 0 0 M73.9359 782.159 L52.3562 782.159 L52.3562 776.303 L73.7131 776.303 Q78.7739 776.303 81.3202 774.329 Q83.8346 772.356 83.8346 768.409 Q83.8346 763.667 80.8109 760.929 Q77.7872 758.16 72.5673 758.16 L52.3562 758.16 L52.3562 752.304 L88.0042 752.304 L88.0042 758.16 L82.5296 758.16 Q85.7762 760.293 87.3676 763.126 Q88.9272 765.927 88.9272 769.65 Q88.9272 775.793 85.1078 778.976 Q81.2883 782.159 73.9359 782.159 M51.4968 767.422 L51.4968 767.422 Z" fill="#000000" fill-rule="evenodd" fill-opacity="1" /><path clip-path="url(#clip210)" d="M 0 0 M38.5426 732.093 Q45.8632 736.358 53.0246 738.427 Q60.186 740.496 67.5384 740.496 Q74.8908 740.496 82.1159 738.427 Q89.3091 736.326 96.5979 732.093 L96.5979 737.185 Q89.1182 741.96 81.8931 744.347 Q74.668 746.702 67.5384 746.702 Q60.4406 746.702 53.2474 744.347 Q46.0542 741.991 38.5426 737.185 L38.5426 732.093 Z" fill="#000000" fill-rule="evenodd" fill-opacity="1" /><path clip-path="url(#clip210)" d="M 0 0 M42.2347 720.157 L52.3562 720.157 L52.3562 708.094 L56.9077 708.094 L56.9077 720.157 L76.2594 720.157 Q80.6199 720.157 81.8613 718.979 Q83.1026 717.77 83.1026 714.11 L83.1026 708.094 L88.0042 708.094 L88.0042 714.11 Q88.0042 720.889 85.4897 723.467 Q82.9434 726.045 76.2594 726.045 L56.9077 726.045 L56.9077 730.342 L52.3562 730.342 L52.3562 726.045 L42.2347 726.045 L42.2347 720.157 Z" fill="#000000" fill-rule="evenodd" fill-opacity="1" /><path clip-path="url(#clip210)" d="M 0 0 M38.5426 702.874 L38.5426 697.782 Q46.0542 693.007 53.2474 690.652 Q60.4406 688.265 67.5384 688.265 Q74.668 688.265 81.8931 690.652 Q89.1182 693.007 96.5979 697.782 L96.5979 702.874 Q89.3091 698.641 82.1159 696.572 Q74.8908 694.471 67.5384 694.471 Q60.186 694.471 53.0246 696.572 Q45.8632 698.641 38.5426 702.874 Z" fill="#000000" fill-rule="evenodd" fill-opacity="1" /><polyline clip-path="url(#clip212)" style="stroke:#009af9; stroke-width:8; stroke-opacity:1; fill:none" points="
  297.978,86.1857 309.377,128.134 322.675,175.364 339.175,231.517 357.919,292.158 379.189,357.128 402.479,423.865 427.713,491.304 454.583,557.941 482.936,622.896 
  512.572,685.368 543.359,744.872 575.168,801.067 607.904,853.782 641.493,902.956 675.876,948.613 711.014,990.839 746.879,1029.76 783.455,1065.53 820.737,1098.33 
  858.727,1128.32 897.434,1155.69 936.876,1180.62 977.072,1203.29 1018.05,1223.85 1059.84,1242.47 1102.47,1259.29 1145.99,1274.47 1190.43,1288.13 1235.84,1300.4 
  1282.27,1311.4 1329.77,1321.23 1378.4,1329.99 1428.22,1337.79 1479.3,1344.7 1531.7,1350.82 1585.5,1356.21 1640.78,1360.95 1697.63,1365.09 1756.15,1368.71 
  1816.43,1371.85 1878.59,1374.57 1942.76,1376.91 2009.05,1378.91 2077.62,1380.62 2148.62,1382.07 2222.24,1383.29 2292.91,1384.24 
  "/>
</svg>
