<?xml version="1.0" encoding="utf-8"?>
<svg xmlns="http://www.w3.org/2000/svg" xmlns:xlink="http://www.w3.org/1999/xlink" width="600" height="400" viewBox="0 0 2400 1600">
<defs>
  <clipPath id="clip240">
    <rect x="0" y="0" width="2400" height="1600"/>
  </clipPath>
</defs>
<path clip-path="url(#clip240)" d="
M0 1600 L2400 1600 L2400 0 L0 0  Z
  " fill="#ffffff" fill-rule="evenodd" fill-opacity="1"/>
<defs>
  <clipPath id="clip241">
    <rect x="480" y="0" width="1681" height="1600"/>
  </clipPath>
</defs>
<path clip-path="url(#clip240)" d="
M224.866 1423.18 L2352.76 1423.18 L2352.76 47.2441 L224.866 47.2441  Z
  " fill="#ffffff" fill-rule="evenodd" fill-opacity="1"/>
<defs>
  <clipPath id="clip242">
    <rect x="224" y="47" width="2129" height="1377"/>
  </clipPath>
</defs>
<polyline clip-path="url(#clip242)" style="stroke:#000000; stroke-width:2; stroke-opacity:0.1; fill:none" points="
  285.09,1423.18 285.09,47.2441 
  "/>
<polyline clip-path="url(#clip242)" style="stroke:#000000; stroke-width:2; stroke-opacity:0.1; fill:none" points="
  954.237,1423.18 954.237,47.2441 
  "/>
<polyline clip-path="url(#clip242)" style="stroke:#000000; stroke-width:2; stroke-opacity:0.1; fill:none" points="
  1623.38,1423.18 1623.38,47.2441 
  "/>
<polyline clip-path="url(#clip242)" style="stroke:#000000; stroke-width:2; stroke-opacity:0.1; fill:none" points="
  2292.53,1423.18 2292.53,47.2441 
  "/>
<polyline clip-path="url(#clip242)" style="stroke:#000000; stroke-width:2; stroke-opacity:0.1; fill:none" points="
  224.866,1423.13 2352.76,1423.13 
  "/>
<polyline clip-path="url(#clip242)" style="stroke:#000000; stroke-width:2; stroke-opacity:0.1; fill:none" points="
  224.866,1079.38 2352.76,1079.38 
  "/>
<polyline clip-path="url(#clip242)" style="stroke:#000000; stroke-width:2; stroke-opacity:0.1; fill:none" points="
  224.866,735.639 2352.76,735.639 
  "/>
<polyline clip-path="url(#clip242)" style="stroke:#000000; stroke-width:2; stroke-opacity:0.1; fill:none" points="
  224.866,391.894 2352.76,391.894 
  "/>
<polyline clip-path="url(#clip242)" style="stroke:#000000; stroke-width:2; stroke-opacity:0.1; fill:none" points="
  224.866,48.1488 2352.76,48.1488 
  "/>
<polyline clip-path="url(#clip240)" style="stroke:#000000; stroke-width:4; stroke-opacity:1; fill:none" points="
  224.866,1423.18 2352.76,1423.18 
  "/>
<polyline clip-path="url(#clip240)" style="stroke:#000000; stroke-width:4; stroke-opacity:1; fill:none" points="
  224.866,1423.18 224.866,47.2441 
  "/>
<polyline clip-path="url(#clip240)" style="stroke:#000000; stroke-width:4; stroke-opacity:1; fill:none" points="
  285.09,1423.18 285.09,1406.67 
  "/>
<polyline clip-path="url(#clip240)" style="stroke:#000000; stroke-width:4; stroke-opacity:1; fill:none" points="
  954.237,1423.18 954.237,1406.67 
  "/>
<polyline clip-path="url(#clip240)" style="stroke:#000000; stroke-width:4; stroke-opacity:1; fill:none" points="
  1623.38,1423.18 1623.38,1406.67 
  "/>
<polyline clip-path="url(#clip240)" style="stroke:#000000; stroke-width:4; stroke-opacity:1; fill:none" points="
  2292.53,1423.18 2292.53,1406.67 
  "/>
<polyline clip-path="url(#clip240)" style="stroke:#000000; stroke-width:4; stroke-opacity:1; fill:none" points="
  224.866,1423.13 250.401,1423.13 
  "/>
<polyline clip-path="url(#clip240)" style="stroke:#000000; stroke-width:4; stroke-opacity:1; fill:none" points="
  224.866,1079.38 250.401,1079.38 
  "/>
<polyline clip-path="url(#clip240)" style="stroke:#000000; stroke-width:4; stroke-opacity:1; fill:none" points="
  224.866,735.639 250.401,735.639 
  "/>
<polyline clip-path="url(#clip240)" style="stroke:#000000; stroke-width:4; stroke-opacity:1; fill:none" points="
  224.866,391.894 250.401,391.894 
  "/>
<polyline clip-path="url(#clip240)" style="stroke:#000000; stroke-width:4; stroke-opacity:1; fill:none" points="
  224.866,48.1488 250.401,48.1488 
  "/>
<path clip-path="url(#clip240)" d="M 0 0 M253.605 1494.25 L261.243 1494.25 L261.243 1467.89 L252.933 1469.55 L252.933 1465.29 L261.197 1463.63 L265.873 1463.63 L265.873 1494.25 L273.512 1494.25 L273.512 1498.19 L253.605 1498.19 L253.605 1494.25 Z" fill="#000000" fill-rule="evenodd" fill-opacity="1" /><path clip-path="url(#clip240)" d="M 0 0 M288.581 1466.71 Q284.97 1466.71 283.141 1470.27 Q281.336 1473.81 281.336 1480.94 Q281.336 1488.05 283.141 1491.61 Q284.97 1495.15 288.581 1495.15 Q292.216 1495.15 294.021 1491.61 Q295.85 1488.05 295.85 1480.94 Q295.85 1473.81 294.021 1470.27 Q292.216 1466.71 288.581 1466.71 M288.581 1463 Q294.391 1463 297.447 1467.61 Q300.526 1472.19 300.526 1480.94 Q300.526 1489.67 297.447 1494.28 Q294.391 1498.86 288.581 1498.86 Q282.771 1498.86 279.692 1494.28 Q276.637 1489.67 276.637 1480.94 Q276.637 1472.19 279.692 1467.61 Q282.771 1463 288.581 1463 Z" fill="#000000" fill-rule="evenodd" fill-opacity="1" /><path clip-path="url(#clip240)" d="M 0 0 M301.071 1467.58 L307.278 1467.58 L307.278 1446.16 L300.526 1447.51 L300.526 1444.05 L307.24 1442.7 L311.039 1442.7 L311.039 1467.58 L317.246 1467.58 L317.246 1470.78 L301.071 1470.78 L301.071 1467.58 Z" fill="#000000" fill-rule="evenodd" fill-opacity="1" /><path clip-path="url(#clip240)" d="M 0 0 M922.197 1494.25 L929.836 1494.25 L929.836 1467.89 L921.526 1469.55 L921.526 1465.29 L929.79 1463.63 L934.466 1463.63 L934.466 1494.25 L942.105 1494.25 L942.105 1498.19 L922.197 1498.19 L922.197 1494.25 Z" fill="#000000" fill-rule="evenodd" fill-opacity="1" /><path clip-path="url(#clip240)" d="M 0 0 M957.174 1466.71 Q953.563 1466.71 951.734 1470.27 Q949.929 1473.81 949.929 1480.94 Q949.929 1488.05 951.734 1491.61 Q953.563 1495.15 957.174 1495.15 Q960.808 1495.15 962.614 1491.61 Q964.443 1488.05 964.443 1480.94 Q964.443 1473.81 962.614 1470.27 Q960.808 1466.71 957.174 1466.71 M957.174 1463 Q962.984 1463 966.04 1467.61 Q969.119 1472.19 969.119 1480.94 Q969.119 1489.67 966.04 1494.28 Q962.984 1498.86 957.174 1498.86 Q951.364 1498.86 948.285 1494.28 Q945.23 1489.67 945.23 1480.94 Q945.23 1472.19 948.285 1467.61 Q951.364 1463 957.174 1463 Z" fill="#000000" fill-rule="evenodd" fill-opacity="1" /><path clip-path="url(#clip240)" d="M 0 0 M973.689 1467.58 L986.948 1467.58 L986.948 1470.78 L969.119 1470.78 L969.119 1467.58 Q971.281 1465.34 975.005 1461.58 Q978.748 1457.8 979.707 1456.71 Q981.532 1454.66 982.246 1453.25 Q982.98 1451.82 982.98 1450.45 Q982.98 1448.21 981.4 1446.8 Q979.839 1445.39 977.319 1445.39 Q975.532 1445.39 973.538 1446.01 Q971.564 1446.63 969.307 1447.89 L969.307 1444.05 Q971.601 1443.13 973.595 1442.66 Q975.588 1442.19 977.243 1442.19 Q981.607 1442.19 984.202 1444.37 Q986.798 1446.55 986.798 1450.2 Q986.798 1451.93 986.14 1453.49 Q985.5 1455.03 983.789 1457.14 Q983.318 1457.69 980.798 1460.3 Q978.278 1462.9 973.689 1467.58 Z" fill="#000000" fill-rule="evenodd" fill-opacity="1" /><path clip-path="url(#clip240)" d="M 0 0 M1591.02 1494.25 L1598.65 1494.25 L1598.65 1467.89 L1590.34 1469.55 L1590.34 1465.29 L1598.61 1463.63 L1603.28 1463.63 L1603.28 1494.25 L1610.92 1494.25 L1610.92 1498.19 L1591.02 1498.19 L1591.02 1494.25 Z" fill="#000000" fill-rule="evenodd" fill-opacity="1" /><path clip-path="url(#clip240)" d="M 0 0 M1625.99 1466.71 Q1622.38 1466.71 1620.55 1470.27 Q1618.75 1473.81 1618.75 1480.94 Q1618.75 1488.05 1620.55 1491.61 Q1622.38 1495.15 1625.99 1495.15 Q1629.63 1495.15 1631.43 1491.61 Q1633.26 1488.05 1633.26 1480.94 Q1633.26 1473.81 1631.43 1470.27 Q1629.63 1466.71 1625.99 1466.71 M1625.99 1463 Q1631.8 1463 1634.86 1467.61 Q1637.94 1472.19 1637.94 1480.94 Q1637.94 1489.67 1634.86 1494.28 Q1631.8 1498.86 1625.99 1498.86 Q1620.18 1498.86 1617.1 1494.28 Q1614.05 1489.67 1614.05 1480.94 Q1614.05 1472.19 1617.1 1467.61 Q1620.18 1463 1625.99 1463 Z" fill="#000000" fill-rule="evenodd" fill-opacity="1" /><path clip-path="url(#clip240)" d="M 0 0 M1650.63 1455.64 Q1653.36 1456.22 1654.88 1458.06 Q1656.43 1459.91 1656.43 1462.61 Q1656.43 1466.77 1653.57 1469.05 Q1650.71 1471.32 1645.44 1471.32 Q1643.67 1471.32 1641.79 1470.96 Q1639.93 1470.63 1637.94 1469.93 L1637.94 1466.26 Q1639.52 1467.18 1641.4 1467.65 Q1643.28 1468.12 1645.33 1468.12 Q1648.9 1468.12 1650.76 1466.71 Q1652.64 1465.3 1652.64 1462.61 Q1652.64 1460.13 1650.9 1458.74 Q1649.17 1457.33 1646.06 1457.33 L1642.79 1457.33 L1642.79 1454.21 L1646.21 1454.21 Q1649.01 1454.21 1650.5 1453.1 Q1651.99 1451.97 1651.99 1449.86 Q1651.99 1447.7 1650.44 1446.55 Q1648.92 1445.39 1646.06 1445.39 Q1644.5 1445.39 1642.71 1445.72 Q1640.93 1446.06 1638.78 1446.78 L1638.78 1443.39 Q1640.95 1442.79 1642.83 1442.49 Q1644.73 1442.19 1646.4 1442.19 Q1650.73 1442.19 1653.25 1444.16 Q1655.77 1446.12 1655.77 1449.47 Q1655.77 1451.8 1654.43 1453.42 Q1653.1 1455.02 1650.63 1455.64 Z" fill="#000000" fill-rule="evenodd" fill-opacity="1" /><path clip-path="url(#clip240)" d="M 0 0 M2259.18 1494.25 L2266.82 1494.25 L2266.82 1467.89 L2258.51 1469.55 L2258.51 1465.29 L2266.77 1463.63 L2271.44 1463.63 L2271.44 1494.25 L2279.08 1494.25 L2279.08 1498.19 L2259.18 1498.19 L2259.18 1494.25 Z" fill="#000000" fill-rule="evenodd" fill-opacity="1" /><path clip-path="url(#clip240)" d="M 0 0 M2294.15 1466.71 Q2290.54 1466.71 2288.71 1470.27 Q2286.91 1473.81 2286.91 1480.94 Q2286.91 1488.05 2288.71 1491.61 Q2290.54 1495.15 2294.15 1495.15 Q2297.79 1495.15 2299.59 1491.61 Q2301.42 1488.05 2301.42 1480.94 Q2301.42 1473.81 2299.59 1470.27 Q2297.79 1466.71 2294.15 1466.71 M2294.15 1463 Q2299.96 1463 2303.02 1467.61 Q2306.1 1472.19 2306.1 1480.94 Q2306.1 1489.67 2303.02 1494.28 Q2299.96 1498.86 2294.15 1498.86 Q2288.34 1498.86 2285.26 1494.28 Q2282.21 1489.67 2282.21 1480.94 Q2282.21 1472.19 2285.26 1467.61 Q2288.34 1463 2294.15 1463 Z" fill="#000000" fill-rule="evenodd" fill-opacity="1" /><path clip-path="url(#clip240)" d="M 0 0 M2318.77 1446.01 L2309.18 1461 L2318.77 1461 L2318.77 1446.01 M2317.78 1442.7 L2322.55 1442.7 L2322.55 1461 L2326.56 1461 L2326.56 1464.16 L2322.55 1464.16 L2322.55 1470.78 L2318.77 1470.78 L2318.77 1464.16 L2306.1 1464.16 L2306.1 1460.49 L2317.78 1442.7 Z" fill="#000000" fill-rule="evenodd" fill-opacity="1" /><path clip-path="url(#clip240)" d="M 0 0 M188.922 1408.93 Q185.311 1408.93 183.482 1412.49 Q181.677 1416.03 181.677 1423.16 Q181.677 1430.27 183.482 1433.83 Q185.311 1437.38 188.922 1437.38 Q192.556 1437.38 194.362 1433.83 Q196.19 1430.27 196.19 1423.16 Q196.19 1416.03 194.362 1412.49 Q192.556 1408.93 188.922 1408.93 M188.922 1405.22 Q194.732 1405.22 197.788 1409.83 Q200.866 1414.41 200.866 1423.16 Q200.866 1431.89 197.788 1436.5 Q194.732 1441.08 188.922 1441.08 Q183.112 1441.08 180.033 1436.5 Q176.977 1431.89 176.977 1423.16 Q176.977 1414.41 180.033 1409.83 Q183.112 1405.22 188.922 1405.22 Z" fill="#000000" fill-rule="evenodd" fill-opacity="1" /><path clip-path="url(#clip240)" d="M 0 0 M158.529 1092.73 L174.848 1092.73 L174.848 1096.66 L152.904 1096.66 L152.904 1092.73 Q155.566 1089.97 160.149 1085.34 Q164.755 1080.69 165.936 1079.35 Q168.181 1076.83 169.061 1075.09 Q169.964 1073.33 169.964 1071.64 Q169.964 1068.89 168.019 1067.15 Q166.098 1065.41 162.996 1065.41 Q160.797 1065.41 158.343 1066.18 Q155.913 1066.94 153.135 1068.49 L153.135 1063.77 Q155.959 1062.64 158.413 1062.06 Q160.866 1061.48 162.903 1061.48 Q168.274 1061.48 171.468 1064.16 Q174.663 1066.85 174.663 1071.34 Q174.663 1073.47 173.852 1075.39 Q173.065 1077.29 170.959 1079.88 Q170.38 1080.55 167.278 1083.77 Q164.177 1086.96 158.529 1092.73 Z" fill="#000000" fill-rule="evenodd" fill-opacity="1" /><path clip-path="url(#clip240)" d="M 0 0 M179.964 1062.1 L198.32 1062.1 L198.32 1066.04 L184.246 1066.04 L184.246 1074.51 Q185.264 1074.16 186.283 1074 Q187.301 1073.82 188.32 1073.82 Q194.107 1073.82 197.487 1076.99 Q200.866 1080.16 200.866 1085.58 Q200.866 1091.15 197.394 1094.26 Q193.922 1097.34 187.602 1097.34 Q185.427 1097.34 183.158 1096.96 Q180.913 1096.59 178.505 1095.85 L178.505 1091.15 Q180.589 1092.29 182.811 1092.84 Q185.033 1093.4 187.51 1093.4 Q191.514 1093.4 193.852 1091.29 Q196.19 1089.19 196.19 1085.58 Q196.19 1081.96 193.852 1079.86 Q191.514 1077.75 187.51 1077.75 Q185.635 1077.75 183.76 1078.17 Q181.908 1078.59 179.964 1079.46 L179.964 1062.1 Z" fill="#000000" fill-rule="evenodd" fill-opacity="1" /><path clip-path="url(#clip240)" d="M 0 0 M152.95 718.359 L171.306 718.359 L171.306 722.294 L157.232 722.294 L157.232 730.766 Q158.251 730.419 159.269 730.257 Q160.288 730.072 161.306 730.072 Q167.093 730.072 170.473 733.243 Q173.852 736.414 173.852 741.831 Q173.852 747.41 170.38 750.511 Q166.908 753.59 160.589 753.59 Q158.413 753.59 156.144 753.22 Q153.899 752.849 151.492 752.109 L151.492 747.41 Q153.575 748.544 155.797 749.099 Q158.019 749.655 160.496 749.655 Q164.501 749.655 166.839 747.549 Q169.177 745.442 169.177 741.831 Q169.177 738.22 166.839 736.113 Q164.501 734.007 160.496 734.007 Q158.621 734.007 156.746 734.424 Q154.894 734.84 152.95 735.72 L152.95 718.359 Z" fill="#000000" fill-rule="evenodd" fill-opacity="1" /><path clip-path="url(#clip240)" d="M 0 0 M188.922 721.438 Q185.311 721.438 183.482 725.002 Q181.677 728.544 181.677 735.674 Q181.677 742.78 183.482 746.345 Q185.311 749.886 188.922 749.886 Q192.556 749.886 194.362 746.345 Q196.19 742.78 196.19 735.674 Q196.19 728.544 194.362 725.002 Q192.556 721.438 188.922 721.438 M188.922 717.734 Q194.732 717.734 197.788 722.34 Q200.866 726.924 200.866 735.674 Q200.866 744.4 197.788 749.007 Q194.732 753.59 188.922 753.59 Q183.112 753.59 180.033 749.007 Q176.977 744.4 176.977 735.674 Q176.977 726.924 180.033 722.34 Q183.112 717.734 188.922 717.734 Z" fill="#000000" fill-rule="evenodd" fill-opacity="1" /><path clip-path="url(#clip240)" d="M 0 0 M152.626 374.614 L174.848 374.614 L174.848 376.605 L162.302 409.174 L157.417 409.174 L169.223 378.549 L152.626 378.549 L152.626 374.614 Z" fill="#000000" fill-rule="evenodd" fill-opacity="1" /><path clip-path="url(#clip240)" d="M 0 0 M179.964 374.614 L198.32 374.614 L198.32 378.549 L184.246 378.549 L184.246 387.021 Q185.264 386.674 186.283 386.512 Q187.301 386.327 188.32 386.327 Q194.107 386.327 197.487 389.498 Q200.866 392.669 200.866 398.086 Q200.866 403.665 197.394 406.766 Q193.922 409.845 187.602 409.845 Q185.427 409.845 183.158 409.475 Q180.913 409.104 178.505 408.364 L178.505 403.665 Q180.589 404.799 182.811 405.354 Q185.033 405.91 187.51 405.91 Q191.514 405.91 193.852 403.804 Q196.19 401.697 196.19 398.086 Q196.19 394.475 193.852 392.368 Q191.514 390.262 187.51 390.262 Q185.635 390.262 183.76 390.679 Q181.908 391.095 179.964 391.975 L179.964 374.614 Z" fill="#000000" fill-rule="evenodd" fill-opacity="1" /><path clip-path="url(#clip240)" d="M 0 0 M126.931 61.4937 L134.57 61.4937 L134.57 35.1281 L126.26 36.7947 L126.26 32.5355 L134.524 30.8688 L139.2 30.8688 L139.2 61.4937 L146.839 61.4937 L146.839 65.4288 L126.931 65.4288 L126.931 61.4937 Z" fill="#000000" fill-rule="evenodd" fill-opacity="1" /><path clip-path="url(#clip240)" d="M 0 0 M161.908 33.9475 Q158.297 33.9475 156.468 37.5123 Q154.663 41.054 154.663 48.1836 Q154.663 55.29 156.468 58.8548 Q158.297 62.3964 161.908 62.3964 Q165.542 62.3964 167.348 58.8548 Q169.177 55.29 169.177 48.1836 Q169.177 41.054 167.348 37.5123 Q165.542 33.9475 161.908 33.9475 M161.908 30.2438 Q167.718 30.2438 170.774 34.8503 Q173.852 39.4336 173.852 48.1836 Q173.852 56.9104 170.774 61.5168 Q167.718 66.1001 161.908 66.1001 Q156.098 66.1001 153.019 61.5168 Q149.964 56.9104 149.964 48.1836 Q149.964 39.4336 153.019 34.8503 Q156.098 30.2438 161.908 30.2438 Z" fill="#000000" fill-rule="evenodd" fill-opacity="1" /><path clip-path="url(#clip240)" d="M 0 0 M188.922 33.9475 Q185.311 33.9475 183.482 37.5123 Q181.677 41.054 181.677 48.1836 Q181.677 55.29 183.482 58.8548 Q185.311 62.3964 188.922 62.3964 Q192.556 62.3964 194.362 58.8548 Q196.19 55.29 196.19 48.1836 Q196.19 41.054 194.362 37.5123 Q192.556 33.9475 188.922 33.9475 M188.922 30.2438 Q194.732 30.2438 197.788 34.8503 Q200.866 39.4336 200.866 48.1836 Q200.866 56.9104 197.788 61.5168 Q194.732 66.1001 188.922 66.1001 Q183.112 66.1001 180.033 61.5168 Q176.977 56.9104 176.977 48.1836 Q176.977 39.4336 180.033 34.8503 Q183.112 30.2438 188.922 30.2438 Z" fill="#000000" fill-rule="evenodd" fill-opacity="1" /><path clip-path="url(#clip240)" d="M 0 0 M1158.36 1527.24 Q1160.56 1523.29 1163.61 1521.41 Q1166.67 1519.54 1170.81 1519.54 Q1176.38 1519.54 1179.4 1523.45 Q1182.42 1527.33 1182.42 1534.53 L1182.42 1556.04 L1176.54 1556.04 L1176.54 1534.72 Q1176.54 1529.59 1174.72 1527.11 Q1172.91 1524.63 1169.18 1524.63 Q1164.63 1524.63 1161.99 1527.65 Q1159.35 1530.68 1159.35 1535.9 L1159.35 1556.04 L1153.46 1556.04 L1153.46 1534.72 Q1153.46 1529.56 1151.65 1527.11 Q1149.83 1524.63 1146.04 1524.63 Q1141.56 1524.63 1138.91 1527.68 Q1136.27 1530.71 1136.27 1535.9 L1136.27 1556.04 L1130.38 1556.04 L1130.38 1520.4 L1136.27 1520.4 L1136.27 1525.93 Q1138.28 1522.66 1141.08 1521.1 Q1143.88 1519.54 1147.73 1519.54 Q1151.61 1519.54 1154.32 1521.51 Q1157.06 1523.48 1158.36 1527.24 Z" fill="#000000" fill-rule="evenodd" fill-opacity="1" /><path clip-path="url(#clip240)" d="M 0 0 M1204.77 1538.12 Q1197.67 1538.12 1194.93 1539.75 Q1192.2 1541.37 1192.2 1545.29 Q1192.2 1548.4 1194.23 1550.25 Q1196.3 1552.07 1199.83 1552.07 Q1204.7 1552.07 1207.63 1548.63 Q1210.59 1545.16 1210.59 1539.43 L1210.59 1538.12 L1204.77 1538.12 M1216.45 1535.71 L1216.45 1556.04 L1210.59 1556.04 L1210.59 1550.63 Q1208.59 1553.88 1205.6 1555.44 Q1202.6 1556.97 1198.27 1556.97 Q1192.8 1556.97 1189.55 1553.91 Q1186.34 1550.82 1186.34 1545.67 Q1186.34 1539.65 1190.35 1536.6 Q1194.39 1533.54 1202.38 1533.54 L1210.59 1533.54 L1210.59 1532.97 Q1210.59 1528.93 1207.92 1526.73 Q1205.28 1524.5 1200.47 1524.5 Q1197.42 1524.5 1194.52 1525.23 Q1191.62 1525.97 1188.95 1527.43 L1188.95 1522.02 Q1192.16 1520.78 1195.19 1520.17 Q1198.21 1519.54 1201.08 1519.54 Q1208.81 1519.54 1212.63 1523.55 Q1216.45 1527.56 1216.45 1535.71 Z" fill="#000000" fill-rule="evenodd" fill-opacity="1" /><path clip-path="url(#clip240)" d="M 0 0 M1228.38 1510.27 L1228.38 1520.4 L1240.45 1520.4 L1240.45 1524.95 L1228.38 1524.95 L1228.38 1544.3 Q1228.38 1548.66 1229.56 1549.9 Q1230.77 1551.14 1234.43 1551.14 L1240.45 1551.14 L1240.45 1556.04 L1234.43 1556.04 Q1227.65 1556.04 1225.07 1553.53 Q1222.5 1550.98 1222.5 1544.3 L1222.5 1524.95 L1218.2 1524.95 L1218.2 1520.4 L1222.5 1520.4 L1222.5 1510.27 L1228.38 1510.27 Z" fill="#000000" fill-rule="evenodd" fill-opacity="1" /><path clip-path="url(#clip240)" d="M 0 0 M1267.25 1525.87 Q1266.26 1525.3 1265.08 1525.04 Q1263.94 1524.76 1262.54 1524.76 Q1257.57 1524.76 1254.9 1528 Q1252.26 1531.22 1252.26 1537.27 L1252.26 1556.04 L1246.37 1556.04 L1246.37 1520.4 L1252.26 1520.4 L1252.26 1525.93 Q1254.1 1522.69 1257.06 1521.13 Q1260.02 1519.54 1264.26 1519.54 Q1264.86 1519.54 1265.59 1519.63 Q1266.32 1519.7 1267.22 1519.85 L1267.25 1525.87 Z" fill="#000000" fill-rule="evenodd" fill-opacity="1" /><path clip-path="url(#clip240)" d="M 0 0 M1273.39 1520.4 L1279.25 1520.4 L1279.25 1556.04 L1273.39 1556.04 L1273.39 1520.4 M1273.39 1506.52 L1279.25 1506.52 L1279.25 1513.93 L1273.39 1513.93 L1273.39 1506.52 Z" fill="#000000" fill-rule="evenodd" fill-opacity="1" /><path clip-path="url(#clip240)" d="M 0 0 M1315.02 1520.4 L1302.13 1537.74 L1315.69 1556.04 L1308.78 1556.04 L1298.41 1542.04 L1288.03 1556.04 L1281.12 1556.04 L1294.97 1537.39 L1282.3 1520.4 L1289.21 1520.4 L1298.66 1533.1 L1308.12 1520.4 L1315.02 1520.4 Z" fill="#000000" fill-rule="evenodd" fill-opacity="1" /><path clip-path="url(#clip240)" d="M 0 0 M1365.28 1521.45 L1365.28 1526.98 Q1362.8 1525.71 1360.12 1525.07 Q1357.45 1524.44 1354.58 1524.44 Q1350.22 1524.44 1348.03 1525.77 Q1345.86 1527.11 1345.86 1529.79 Q1345.86 1531.82 1347.42 1533 Q1348.98 1534.15 1353.69 1535.2 L1355.7 1535.64 Q1361.94 1536.98 1364.55 1539.43 Q1367.19 1541.85 1367.19 1546.21 Q1367.19 1551.17 1363.24 1554.07 Q1359.33 1556.97 1352.45 1556.97 Q1349.59 1556.97 1346.47 1556.39 Q1343.38 1555.85 1339.94 1554.74 L1339.94 1548.69 Q1343.19 1550.38 1346.34 1551.24 Q1349.49 1552.07 1352.58 1552.07 Q1356.72 1552.07 1358.95 1550.66 Q1361.17 1549.23 1361.17 1546.65 Q1361.17 1544.27 1359.55 1542.99 Q1357.96 1541.72 1352.52 1540.54 L1350.48 1540.07 Q1345.04 1538.92 1342.62 1536.56 Q1340.2 1534.18 1340.2 1530.04 Q1340.2 1525.01 1343.76 1522.27 Q1347.33 1519.54 1353.88 1519.54 Q1357.13 1519.54 1360 1520.01 Q1362.86 1520.49 1365.28 1521.45 Z" fill="#000000" fill-rule="evenodd" fill-opacity="1" /><path clip-path="url(#clip240)" d="M 0 0 M1373.33 1520.4 L1379.19 1520.4 L1379.19 1556.04 L1373.33 1556.04 L1373.33 1520.4 M1373.33 1506.52 L1379.19 1506.52 L1379.19 1513.93 L1373.33 1513.93 L1373.33 1506.52 Z" fill="#000000" fill-rule="evenodd" fill-opacity="1" /><path clip-path="url(#clip240)" d="M 0 0 M1382.78 1520.4 L1410.6 1520.4 L1410.6 1525.74 L1388.58 1551.37 L1410.6 1551.37 L1410.6 1556.04 L1381.99 1556.04 L1381.99 1550.7 L1404.01 1525.07 L1382.78 1525.07 L1382.78 1520.4 Z" fill="#000000" fill-rule="evenodd" fill-opacity="1" /><path clip-path="url(#clip240)" d="M 0 0 M1447.24 1536.76 L1447.24 1539.62 L1420.31 1539.62 Q1420.69 1545.67 1423.94 1548.85 Q1427.22 1552 1433.04 1552 Q1436.42 1552 1439.57 1551.17 Q1442.75 1550.35 1445.87 1548.69 L1445.87 1554.23 Q1442.72 1555.57 1439.41 1556.27 Q1436.1 1556.97 1432.69 1556.97 Q1424.16 1556.97 1419.16 1552 Q1414.2 1547.04 1414.2 1538.57 Q1414.2 1529.82 1418.91 1524.69 Q1423.65 1519.54 1431.67 1519.54 Q1438.87 1519.54 1443.04 1524.18 Q1447.24 1528.8 1447.24 1536.76 M1441.38 1535.04 Q1441.32 1530.23 1438.68 1527.37 Q1436.07 1524.5 1431.74 1524.5 Q1426.84 1524.5 1423.88 1527.27 Q1420.95 1530.04 1420.5 1535.07 L1441.38 1535.04 Z" fill="#000000" fill-rule="evenodd" fill-opacity="1" /><path clip-path="url(#clip240)" d="M 0 0 M40.4842 1072.86 L40.4842 1064.21 L80.238 1043.14 L40.4842 1043.14 L40.4842 1036.9 L88.0042 1036.9 L88.0042 1045.56 L48.2503 1066.63 L88.0042 1066.63 L88.0042 1072.86 L40.4842 1072.86 Z" fill="#000000" fill-rule="evenodd" fill-opacity="1" /><path clip-path="url(#clip240)" d="M 0 0 M73.9359 1031.36 L52.3562 1031.36 L52.3562 1025.5 L73.7131 1025.5 Q78.7739 1025.5 81.3202 1023.53 Q83.8346 1021.56 83.8346 1017.61 Q83.8346 1012.87 80.8109 1010.13 Q77.7872 1007.36 72.5673 1007.36 L52.3562 1007.36 L52.3562 1001.51 L88.0042 1001.51 L88.0042 1007.36 L82.5296 1007.36 Q85.7762 1009.49 87.3676 1012.33 Q88.9272 1015.13 88.9272 1018.85 Q88.9272 1024.99 85.1078 1028.18 Q81.2883 1031.36 73.9359 1031.36 M51.4968 1016.62 L51.4968 1016.62 Z" fill="#000000" fill-rule="evenodd" fill-opacity="1" /><path clip-path="url(#clip240)" d="M 0 0 M59.1993 967.608 Q55.2526 965.412 53.3747 962.356 Q51.4968 959.301 51.4968 955.163 Q51.4968 949.593 55.4117 946.569 Q59.2948 943.546 66.4881 943.546 L88.0042 943.546 L88.0042 949.434 L66.679 949.434 Q61.5546 949.434 59.072 951.248 Q56.5894 953.062 56.5894 956.786 Q56.5894 961.338 59.6131 963.98 Q62.6368 966.621 67.8567 966.621 L88.0042 966.621 L88.0042 972.51 L66.679 972.51 Q61.5228 972.51 59.072 974.324 Q56.5894 976.138 56.5894 979.926 Q56.5894 984.413 59.6449 987.055 Q62.6686 989.697 67.8567 989.697 L88.0042 989.697 L88.0042 995.585 L52.3562 995.585 L52.3562 989.697 L57.8944 989.697 Q54.616 987.692 53.0564 984.891 Q51.4968 982.09 51.4968 978.239 Q51.4968 974.356 53.4702 971.65 Q55.4436 968.913 59.1993 967.608 Z" fill="#000000" fill-rule="evenodd" fill-opacity="1" /><path clip-path="url(#clip240)" d="M 0 0 M45.7677 930.719 L63.6235 930.719 L63.6235 922.634 Q63.6235 918.146 61.3 915.696 Q58.9765 913.245 54.6797 913.245 Q50.4147 913.245 48.0912 915.696 Q45.7677 918.146 45.7677 922.634 L45.7677 930.719 M40.4842 937.148 L40.4842 922.634 Q40.4842 914.645 44.1126 910.571 Q47.7092 906.465 54.6797 906.465 Q61.7138 906.465 65.3104 910.571 Q68.907 914.645 68.907 922.634 L68.907 930.719 L88.0042 930.719 L88.0042 937.148 L40.4842 937.148 Z" fill="#000000" fill-rule="evenodd" fill-opacity="1" /><path clip-path="url(#clip240)" d="M 0 0 M91.3143 885.49 Q97.68 887.973 99.6216 890.328 Q101.563 892.684 101.563 896.63 L101.563 901.309 L96.6615 901.309 L96.6615 897.872 Q96.6615 895.453 95.5157 894.116 Q94.3699 892.779 90.1048 891.156 L87.4312 890.106 L52.3562 904.524 L52.3562 898.317 L80.238 887.177 L52.3562 876.037 L52.3562 869.831 L91.3143 885.49 Z" fill="#000000" fill-rule="evenodd" fill-opacity="1" /><path clip-path="url(#clip240)" d="M 0 0 M42.2347 837.175 L52.3562 837.175 L52.3562 825.112 L56.9077 825.112 L56.9077 837.175 L76.2594 837.175 Q80.6199 837.175 81.8613 835.997 Q83.1026 834.788 83.1026 831.127 L83.1026 825.112 L88.0042 825.112 L88.0042 831.127 Q88.0042 837.907 85.4897 840.485 Q82.9434 843.063 76.2594 843.063 L56.9077 843.063 L56.9077 847.36 L52.3562 847.36 L52.3562 843.063 L42.2347 843.063 L42.2347 837.175 Z" fill="#000000" fill-rule="evenodd" fill-opacity="1" /><path clip-path="url(#clip240)" d="M 0 0 M52.3562 818.969 L52.3562 813.112 L88.0042 813.112 L88.0042 818.969 L52.3562 818.969 M38.479 818.969 L38.479 813.112 L45.895 813.112 L45.895 818.969 L38.479 818.969 Z" fill="#000000" fill-rule="evenodd" fill-opacity="1" /><path clip-path="url(#clip240)" d="M 0 0 M59.1993 779.215 Q55.2526 777.019 53.3747 773.963 Q51.4968 770.908 51.4968 766.77 Q51.4968 761.2 55.4117 758.176 Q59.2948 755.153 66.4881 755.153 L88.0042 755.153 L88.0042 761.041 L66.679 761.041 Q61.5546 761.041 59.072 762.855 Q56.5894 764.669 56.5894 768.393 Q56.5894 772.945 59.6131 775.586 Q62.6368 778.228 67.8567 778.228 L88.0042 778.228 L88.0042 784.117 L66.679 784.117 Q61.5228 784.117 59.072 785.931 Q56.5894 787.745 56.5894 791.533 Q56.5894 796.02 59.6449 798.662 Q62.6686 801.304 67.8567 801.304 L88.0042 801.304 L88.0042 807.192 L52.3562 807.192 L52.3562 801.304 L57.8944 801.304 Q54.616 799.299 53.0564 796.498 Q51.4968 793.697 51.4968 789.846 Q51.4968 785.963 53.4702 783.257 Q55.4436 780.52 59.1993 779.215 Z" fill="#000000" fill-rule="evenodd" fill-opacity="1" /><path clip-path="url(#clip240)" d="M 0 0 M68.7161 718.518 L71.5806 718.518 L71.5806 745.445 Q77.6281 745.063 80.8109 741.816 Q83.9619 738.538 83.9619 732.713 Q83.9619 729.34 83.1344 726.189 Q82.3069 723.006 80.6518 719.887 L86.1899 719.887 Q87.5267 723.038 88.227 726.348 Q88.9272 729.658 88.9272 733.064 Q88.9272 741.594 83.9619 746.591 Q78.9967 751.556 70.5303 751.556 Q61.7774 751.556 56.6531 746.845 Q51.4968 742.103 51.4968 734.082 Q51.4968 726.889 56.1438 722.719 Q60.7589 718.518 68.7161 718.518 M66.9973 724.374 Q62.1912 724.438 59.3266 727.08 Q56.4621 729.69 56.4621 734.018 Q56.4621 738.92 59.2312 741.88 Q62.0002 744.808 67.0292 745.254 L66.9973 724.374 Z" fill="#000000" fill-rule="evenodd" fill-opacity="1" /><path clip-path="url(#clip240)" d="M 0 0 M40.4842 681.247 L40.4842 675.836 L94.0516 692.387 L94.0516 697.798 L40.4842 681.247 Z" fill="#000000" fill-rule="evenodd" fill-opacity="1" /><path clip-path="url(#clip240)" d="M 0 0 M40.4842 648.718 L40.4842 642.289 L84.694 642.289 Q93.2877 642.289 97.1708 645.567 Q101.054 648.813 101.054 656.038 L101.054 658.489 L95.643 658.489 L95.643 656.484 Q95.643 652.219 93.2559 650.468 Q90.8687 648.718 84.694 648.718 L40.4842 648.718 Z" fill="#000000" fill-rule="evenodd" fill-opacity="1" /><path clip-path="url(#clip240)" d="M 0 0 M73.9359 636.75 L52.3562 636.75 L52.3562 630.894 L73.7131 630.894 Q78.7739 630.894 81.3202 628.921 Q83.8346 626.947 83.8346 623 Q83.8346 618.258 80.8109 615.521 Q77.7872 612.752 72.5673 612.752 L52.3562 612.752 L52.3562 606.895 L88.0042 606.895 L88.0042 612.752 L82.5296 612.752 Q85.7762 614.884 87.3676 617.717 Q88.9272 620.518 88.9272 624.242 Q88.9272 630.385 85.1078 633.568 Q81.2883 636.75 73.9359 636.75 M51.4968 622.014 L51.4968 622.014 Z" fill="#000000" fill-rule="evenodd" fill-opacity="1" /><path clip-path="url(#clip240)" d="M 0 0 M38.479 600.752 L38.479 594.896 L88.0042 594.896 L88.0042 600.752 L38.479 600.752 Z" fill="#000000" fill-rule="evenodd" fill-opacity="1" /><path clip-path="url(#clip240)" d="M 0 0 M52.3562 588.753 L52.3562 582.897 L88.0042 582.897 L88.0042 588.753 L52.3562 588.753 M38.479 588.753 L38.479 582.897 L45.895 582.897 L45.895 588.753 L38.479 588.753 Z" fill="#000000" fill-rule="evenodd" fill-opacity="1" /><path clip-path="url(#clip240)" d="M 0 0 M70.0847 560.553 Q70.0847 567.651 71.7079 570.388 Q73.3312 573.125 77.2461 573.125 Q80.3653 573.125 82.2114 571.088 Q84.0256 569.019 84.0256 565.486 Q84.0256 560.617 80.5881 557.688 Q77.1188 554.728 71.3897 554.728 L70.0847 554.728 L70.0847 560.553 M67.6657 548.872 L88.0042 548.872 L88.0042 554.728 L82.5933 554.728 Q85.8398 556.733 87.3994 559.725 Q88.9272 562.717 88.9272 567.046 Q88.9272 572.52 85.8716 575.767 Q82.7843 578.982 77.6281 578.982 Q71.6125 578.982 68.5569 574.971 Q65.5014 570.929 65.5014 562.94 L65.5014 554.728 L64.9285 554.728 Q60.8862 554.728 58.6901 557.402 Q56.4621 560.044 56.4621 564.85 Q56.4621 567.905 57.1941 570.802 Q57.9262 573.698 59.3903 576.372 L53.9795 576.372 Q52.7381 573.157 52.1334 570.133 Q51.4968 567.11 51.4968 564.245 Q51.4968 556.511 55.5072 552.691 Q59.5176 548.872 67.6657 548.872 Z" fill="#000000" fill-rule="evenodd" fill-opacity="1" /><path clip-path="url(#clip240)" d="M 0 0 M42.2347 516.216 L52.3562 516.216 L52.3562 504.153 L56.9077 504.153 L56.9077 516.216 L76.2594 516.216 Q80.6199 516.216 81.8613 515.038 Q83.1026 513.829 83.1026 510.168 L83.1026 504.153 L88.0042 504.153 L88.0042 510.168 Q88.0042 516.948 85.4897 519.526 Q82.9434 522.104 76.2594 522.104 L56.9077 522.104 L56.9077 526.401 L52.3562 526.401 L52.3562 522.104 L42.2347 522.104 L42.2347 516.216 Z" fill="#000000" fill-rule="evenodd" fill-opacity="1" /><path clip-path="url(#clip240)" d="M 0 0 M52.3562 498.01 L52.3562 492.153 L88.0042 492.153 L88.0042 498.01 L52.3562 498.01 M38.479 498.01 L38.479 492.153 L45.895 492.153 L45.895 498.01 L38.479 498.01 Z" fill="#000000" fill-rule="evenodd" fill-opacity="1" /><path clip-path="url(#clip240)" d="M 0 0 M59.1993 458.256 Q55.2526 456.06 53.3747 453.004 Q51.4968 449.949 51.4968 445.811 Q51.4968 440.241 55.4117 437.217 Q59.2948 434.194 66.4881 434.194 L88.0042 434.194 L88.0042 440.082 L66.679 440.082 Q61.5546 440.082 59.072 441.896 Q56.5894 443.71 56.5894 447.434 Q56.5894 451.986 59.6131 454.628 Q62.6368 457.269 67.8567 457.269 L88.0042 457.269 L88.0042 463.158 L66.679 463.158 Q61.5228 463.158 59.072 464.972 Q56.5894 466.786 56.5894 470.574 Q56.5894 475.061 59.6449 477.703 Q62.6686 480.345 67.8567 480.345 L88.0042 480.345 L88.0042 486.233 L52.3562 486.233 L52.3562 480.345 L57.8944 480.345 Q54.616 478.34 53.0564 475.539 Q51.4968 472.738 51.4968 468.887 Q51.4968 465.004 53.4702 462.298 Q55.4436 459.561 59.1993 458.256 Z" fill="#000000" fill-rule="evenodd" fill-opacity="1" /><path clip-path="url(#clip240)" d="M 0 0 M68.7161 397.559 L71.5806 397.559 L71.5806 424.486 Q77.6281 424.104 80.8109 420.857 Q83.9619 417.579 83.9619 411.755 Q83.9619 408.381 83.1344 405.23 Q82.3069 402.047 80.6518 398.928 L86.1899 398.928 Q87.5267 402.079 88.227 405.389 Q88.9272 408.699 88.9272 412.105 Q88.9272 420.635 83.9619 425.632 Q78.9967 430.597 70.5303 430.597 Q61.7774 430.597 56.6531 425.886 Q51.4968 421.144 51.4968 413.123 Q51.4968 405.93 56.1438 401.76 Q60.7589 397.559 68.7161 397.559 M66.9973 403.415 Q62.1912 403.479 59.3266 406.121 Q56.4621 408.731 56.4621 413.059 Q56.4621 417.961 59.2312 420.921 Q62.0002 423.849 67.0292 424.295 L66.9973 403.415 Z" fill="#000000" fill-rule="evenodd" fill-opacity="1" /><polyline clip-path="url(#clip242)" style="stroke:#009af9; stroke-width:4; stroke-opacity:1; fill:none" points="
  285.09,86.1857 354.312,398.449 423.534,836.201 492.756,1012.98 561.978,1127.68 631.2,1232.09 700.423,1294.25 769.645,1328.83 838.867,1311.72 908.089,1359.47 
  977.311,1345.98 1046.53,1333.51 1115.76,1368.05 1184.98,1375.54 1254.2,1377.43 1323.42,1372.5 1392.64,1384.24 1461.87,1378.73 1531.09,1369.57 1600.31,1376.96 
  1669.53,1379.28 1738.76,1370.3 1807.98,1364.03 1877.2,1352.7 1946.42,1347.63 2015.64,1361.43 2084.87,1367.91 2154.09,1369.05 2223.31,1364.62 2292.53,1361.3 
  
  "/>
<circle clip-path="url(#clip242)" cx="285.09" cy="86.1857" r="14" fill="#009af9" fill-rule="evenodd" fill-opacity="1" stroke="#000000" stroke-opacity="1" stroke-width="3.2"/>
<circle clip-path="url(#clip242)" cx="354.312" cy="398.449" r="14" fill="#009af9" fill-rule="evenodd" fill-opacity="1" stroke="#000000" stroke-opacity="1" stroke-width="3.2"/>
<circle clip-path="url(#clip242)" cx="423.534" cy="836.201" r="14" fill="#009af9" fill-rule="evenodd" fill-opacity="1" stroke="#000000" stroke-opacity="1" stroke-width="3.2"/>
<circle clip-path="url(#clip242)" cx="492.756" cy="1012.98" r="14" fill="#009af9" fill-rule="evenodd" fill-opacity="1" stroke="#000000" stroke-opacity="1" stroke-width="3.2"/>
<circle clip-path="url(#clip242)" cx="561.978" cy="1127.68" r="14" fill="#009af9" fill-rule="evenodd" fill-opacity="1" stroke="#000000" stroke-opacity="1" stroke-width="3.2"/>
<circle clip-path="url(#clip242)" cx="631.2" cy="1232.09" r="14" fill="#009af9" fill-rule="evenodd" fill-opacity="1" stroke="#000000" stroke-opacity="1" stroke-width="3.2"/>
<circle clip-path="url(#clip242)" cx="700.423" cy="1294.25" r="14" fill="#009af9" fill-rule="evenodd" fill-opacity="1" stroke="#000000" stroke-opacity="1" stroke-width="3.2"/>
<circle clip-path="url(#clip242)" cx="769.645" cy="1328.83" r="14" fill="#009af9" fill-rule="evenodd" fill-opacity="1" stroke="#000000" stroke-opacity="1" stroke-width="3.2"/>
<circle clip-path="url(#clip242)" cx="838.867" cy="1311.72" r="14" fill="#009af9" fill-rule="evenodd" fill-opacity="1" stroke="#000000" stroke-opacity="1" stroke-width="3.2"/>
<circle clip-path="url(#clip242)" cx="908.089" cy="1359.47" r="14" fill="#009af9" fill-rule="evenodd" fill-opacity="1" stroke="#000000" stroke-opacity="1" stroke-width="3.2"/>
<circle clip-path="url(#clip242)" cx="977.311" cy="1345.98" r="14" fill="#009af9" fill-rule="evenodd" fill-opacity="1" stroke="#000000" stroke-opacity="1" stroke-width="3.2"/>
<circle clip-path="url(#clip242)" cx="1046.53" cy="1333.51" r="14" fill="#009af9" fill-rule="evenodd" fill-opacity="1" stroke="#000000" stroke-opacity="1" stroke-width="3.2"/>
<circle clip-path="url(#clip242)" cx="1115.76" cy="1368.05" r="14" fill="#009af9" fill-rule="evenodd" fill-opacity="1" stroke="#000000" stroke-opacity="1" stroke-width="3.2"/>
<circle clip-path="url(#clip242)" cx="1184.98" cy="1375.54" r="14" fill="#009af9" fill-rule="evenodd" fill-opacity="1" stroke="#000000" stroke-opacity="1" stroke-width="3.2"/>
<circle clip-path="url(#clip242)" cx="1254.2" cy="1377.43" r="14" fill="#009af9" fill-rule="evenodd" fill-opacity="1" stroke="#000000" stroke-opacity="1" stroke-width="3.2"/>
<circle clip-path="url(#clip242)" cx="1323.42" cy="1372.5" r="14" fill="#009af9" fill-rule="evenodd" fill-opacity="1" stroke="#000000" stroke-opacity="1" stroke-width="3.2"/>
<circle clip-path="url(#clip242)" cx="1392.64" cy="1384.24" r="14" fill="#009af9" fill-rule="evenodd" fill-opacity="1" stroke="#000000" stroke-opacity="1" stroke-width="3.2"/>
<circle clip-path="url(#clip242)" cx="1461.87" cy="1378.73" r="14" fill="#009af9" fill-rule="evenodd" fill-opacity="1" stroke="#000000" stroke-opacity="1" stroke-width="3.2"/>
<circle clip-path="url(#clip242)" cx="1531.09" cy="1369.57" r="14" fill="#009af9" fill-rule="evenodd" fill-opacity="1" stroke="#000000" stroke-opacity="1" stroke-width="3.2"/>
<circle clip-path="url(#clip242)" cx="1600.31" cy="1376.96" r="14" fill="#009af9" fill-rule="evenodd" fill-opacity="1" stroke="#000000" stroke-opacity="1" stroke-width="3.2"/>
<circle clip-path="url(#clip242)" cx="1669.53" cy="1379.28" r="14" fill="#009af9" fill-rule="evenodd" fill-opacity="1" stroke="#000000" stroke-opacity="1" stroke-width="3.2"/>
<circle clip-path="url(#clip242)" cx="1738.76" cy="1370.3" r="14" fill="#009af9" fill-rule="evenodd" fill-opacity="1" stroke="#000000" stroke-opacity="1" stroke-width="3.2"/>
<circle clip-path="url(#clip242)" cx="1807.98" cy="1364.03" r="14" fill="#009af9" fill-rule="evenodd" fill-opacity="1" stroke="#000000" stroke-opacity="1" stroke-width="3.2"/>
<circle clip-path="url(#clip242)" cx="1877.2" cy="1352.7" r="14" fill="#009af9" fill-rule="evenodd" fill-opacity="1" stroke="#000000" stroke-opacity="1" stroke-width="3.2"/>
<circle clip-path="url(#clip242)" cx="1946.42" cy="1347.63" r="14" fill="#009af9" fill-rule="evenodd" fill-opacity="1" stroke="#000000" stroke-opacity="1" stroke-width="3.2"/>
<circle clip-path="url(#clip242)" cx="2015.64" cy="1361.43" r="14" fill="#009af9" fill-rule="evenodd" fill-opacity="1" stroke="#000000" stroke-opacity="1" stroke-width="3.2"/>
<circle clip-path="url(#clip242)" cx="2084.87" cy="1367.91" r="14" fill="#009af9" fill-rule="evenodd" fill-opacity="1" stroke="#000000" stroke-opacity="1" stroke-width="3.2"/>
<circle clip-path="url(#clip242)" cx="2154.09" cy="1369.05" r="14" fill="#009af9" fill-rule="evenodd" fill-opacity="1" stroke="#000000" stroke-opacity="1" stroke-width="3.2"/>
<circle clip-path="url(#clip242)" cx="2223.31" cy="1364.62" r="14" fill="#009af9" fill-rule="evenodd" fill-opacity="1" stroke="#000000" stroke-opacity="1" stroke-width="3.2"/>
<circle clip-path="url(#clip242)" cx="2292.53" cy="1361.3" r="14" fill="#009af9" fill-rule="evenodd" fill-opacity="1" stroke="#000000" stroke-opacity="1" stroke-width="3.2"/>
</svg>
