<?xml version="1.0" encoding="utf-8"?>
<svg xmlns="http://www.w3.org/2000/svg" xmlns:xlink="http://www.w3.org/1999/xlink" width="600" height="400" viewBox="0 0 2400 1600">
<defs>
  <clipPath id="clip290">
    <rect x="0" y="0" width="2400" height="1600"/>
  </clipPath>
</defs>
<path clip-path="url(#clip290)" d="
M0 1600 L2400 1600 L2400 0 L0 0  Z
  " fill="#ffffff" fill-rule="evenodd" fill-opacity="1"/>
<defs>
  <clipPath id="clip291">
    <rect x="480" y="0" width="1681" height="1600"/>
  </clipPath>
</defs>
<path clip-path="url(#clip290)" d="
M238.13 1423.18 L2352.76 1423.18 L2352.76 47.2441 L238.13 47.2441  Z
  " fill="#ffffff" fill-rule="evenodd" fill-opacity="1"/>
<defs>
  <clipPath id="clip292">
    <rect x="238" y="47" width="2116" height="1377"/>
  </clipPath>
</defs>
<polyline clip-path="url(#clip292)" style="stroke:#000000; stroke-width:2; stroke-opacity:0.1; fill:none" points="
  297.978,1423.18 297.978,47.2441 
  "/>
<polyline clip-path="url(#clip292)" style="stroke:#000000; stroke-width:2; stroke-opacity:0.1; fill:none" points="
  796.71,1423.18 796.71,47.2441 
  "/>
<polyline clip-path="url(#clip292)" style="stroke:#000000; stroke-width:2; stroke-opacity:0.1; fill:none" points="
  1295.44,1423.18 1295.44,47.2441 
  "/>
<polyline clip-path="url(#clip292)" style="stroke:#000000; stroke-width:2; stroke-opacity:0.1; fill:none" points="
  1794.18,1423.18 1794.18,47.2441 
  "/>
<polyline clip-path="url(#clip292)" style="stroke:#000000; stroke-width:2; stroke-opacity:0.1; fill:none" points="
  2292.91,1423.18 2292.91,47.2441 
  "/>
<polyline clip-path="url(#clip292)" style="stroke:#000000; stroke-width:2; stroke-opacity:0.1; fill:none" points="
  238.13,1387.7 2352.76,1387.7 
  "/>
<polyline clip-path="url(#clip292)" style="stroke:#000000; stroke-width:2; stroke-opacity:0.1; fill:none" points="
  238.13,1091.9 2352.76,1091.9 
  "/>
<polyline clip-path="url(#clip292)" style="stroke:#000000; stroke-width:2; stroke-opacity:0.1; fill:none" points="
  238.13,796.1 2352.76,796.1 
  "/>
<polyline clip-path="url(#clip292)" style="stroke:#000000; stroke-width:2; stroke-opacity:0.1; fill:none" points="
  238.13,500.303 2352.76,500.303 
  "/>
<polyline clip-path="url(#clip292)" style="stroke:#000000; stroke-width:2; stroke-opacity:0.1; fill:none" points="
  238.13,204.505 2352.76,204.505 
  "/>
<polyline clip-path="url(#clip290)" style="stroke:#000000; stroke-width:4; stroke-opacity:1; fill:none" points="
  238.13,1423.18 2352.76,1423.18 
  "/>
<polyline clip-path="url(#clip290)" style="stroke:#000000; stroke-width:4; stroke-opacity:1; fill:none" points="
  238.13,1423.18 238.13,47.2441 
  "/>
<polyline clip-path="url(#clip290)" style="stroke:#000000; stroke-width:4; stroke-opacity:1; fill:none" points="
  297.978,1423.18 297.978,1406.67 
  "/>
<polyline clip-path="url(#clip290)" style="stroke:#000000; stroke-width:4; stroke-opacity:1; fill:none" points="
  796.71,1423.18 796.71,1406.67 
  "/>
<polyline clip-path="url(#clip290)" style="stroke:#000000; stroke-width:4; stroke-opacity:1; fill:none" points="
  1295.44,1423.18 1295.44,1406.67 
  "/>
<polyline clip-path="url(#clip290)" style="stroke:#000000; stroke-width:4; stroke-opacity:1; fill:none" points="
  1794.18,1423.18 1794.18,1406.67 
  "/>
<polyline clip-path="url(#clip290)" style="stroke:#000000; stroke-width:4; stroke-opacity:1; fill:none" points="
  2292.91,1423.18 2292.91,1406.67 
  "/>
<polyline clip-path="url(#clip290)" style="stroke:#000000; stroke-width:4; stroke-opacity:1; fill:none" points="
  238.13,1387.7 263.506,1387.7 
  "/>
<polyline clip-path="url(#clip290)" style="stroke:#000000; stroke-width:4; stroke-opacity:1; fill:none" points="
  238.13,1091.9 263.506,1091.9 
  "/>
<polyline clip-path="url(#clip290)" style="stroke:#000000; stroke-width:4; stroke-opacity:1; fill:none" points="
  238.13,796.1 263.506,796.1 
  "/>
<polyline clip-path="url(#clip290)" style="stroke:#000000; stroke-width:4; stroke-opacity:1; fill:none" points="
  238.13,500.303 263.506,500.303 
  "/>
<polyline clip-path="url(#clip290)" style="stroke:#000000; stroke-width:4; stroke-opacity:1; fill:none" points="
  238.13,204.505 263.506,204.505 
  "/>
<path clip-path="url(#clip290)" d="M 0 0 M265.987 1445.17 Q262.376 1445.17 260.548 1448.74 Q258.742 1452.28 258.742 1459.41 Q258.742 1466.51 260.548 1470.08 Q262.376 1473.62 265.987 1473.62 Q269.622 1473.62 271.427 1470.08 Q273.256 1466.51 273.256 1459.41 Q273.256 1452.28 271.427 1448.74 Q269.622 1445.17 265.987 1445.17 M265.987 1441.47 Q271.798 1441.47 274.853 1446.07 Q277.932 1450.66 277.932 1459.41 Q277.932 1468.13 274.853 1472.74 Q271.798 1477.32 265.987 1477.32 Q260.177 1477.32 257.099 1472.74 Q254.043 1468.13 254.043 1459.41 Q254.043 1450.66 257.099 1446.07 Q260.177 1441.47 265.987 1441.47 Z" fill="#000000" fill-rule="evenodd" fill-opacity="1" /><path clip-path="url(#clip290)" d="M 0 0 M283.001 1470.77 L287.885 1470.77 L287.885 1476.65 L283.001 1476.65 L283.001 1470.77 Z" fill="#000000" fill-rule="evenodd" fill-opacity="1" /><path clip-path="url(#clip290)" d="M 0 0 M302.955 1445.17 Q299.344 1445.17 297.515 1448.74 Q295.709 1452.28 295.709 1459.41 Q295.709 1466.51 297.515 1470.08 Q299.344 1473.62 302.955 1473.62 Q306.589 1473.62 308.395 1470.08 Q310.223 1466.51 310.223 1459.41 Q310.223 1452.28 308.395 1448.74 Q306.589 1445.17 302.955 1445.17 M302.955 1441.47 Q308.765 1441.47 311.82 1446.07 Q314.899 1450.66 314.899 1459.41 Q314.899 1468.13 311.82 1472.74 Q308.765 1477.32 302.955 1477.32 Q297.145 1477.32 294.066 1472.74 Q291.01 1468.13 291.01 1459.41 Q291.01 1450.66 294.066 1446.07 Q297.145 1441.47 302.955 1441.47 Z" fill="#000000" fill-rule="evenodd" fill-opacity="1" /><path clip-path="url(#clip290)" d="M 0 0 M329.969 1445.17 Q326.357 1445.17 324.529 1448.74 Q322.723 1452.28 322.723 1459.41 Q322.723 1466.51 324.529 1470.08 Q326.357 1473.62 329.969 1473.62 Q333.603 1473.62 335.408 1470.08 Q337.237 1466.51 337.237 1459.41 Q337.237 1452.28 335.408 1448.74 Q333.603 1445.17 329.969 1445.17 M329.969 1441.47 Q335.779 1441.47 338.834 1446.07 Q341.913 1450.66 341.913 1459.41 Q341.913 1468.13 338.834 1472.74 Q335.779 1477.32 329.969 1477.32 Q324.158 1477.32 321.08 1472.74 Q318.024 1468.13 318.024 1459.41 Q318.024 1450.66 321.08 1446.07 Q324.158 1441.47 329.969 1441.47 Z" fill="#000000" fill-rule="evenodd" fill-opacity="1" /><path clip-path="url(#clip290)" d="M 0 0 M766.016 1445.17 Q762.405 1445.17 760.576 1448.74 Q758.771 1452.28 758.771 1459.41 Q758.771 1466.51 760.576 1470.08 Q762.405 1473.62 766.016 1473.62 Q769.65 1473.62 771.456 1470.08 Q773.285 1466.51 773.285 1459.41 Q773.285 1452.28 771.456 1448.74 Q769.65 1445.17 766.016 1445.17 M766.016 1441.47 Q771.826 1441.47 774.882 1446.07 Q777.961 1450.66 777.961 1459.41 Q777.961 1468.13 774.882 1472.74 Q771.826 1477.32 766.016 1477.32 Q760.206 1477.32 757.127 1472.74 Q754.072 1468.13 754.072 1459.41 Q754.072 1450.66 757.127 1446.07 Q760.206 1441.47 766.016 1441.47 Z" fill="#000000" fill-rule="evenodd" fill-opacity="1" /><path clip-path="url(#clip290)" d="M 0 0 M783.03 1470.77 L787.914 1470.77 L787.914 1476.65 L783.03 1476.65 L783.03 1470.77 Z" fill="#000000" fill-rule="evenodd" fill-opacity="1" /><path clip-path="url(#clip290)" d="M 0 0 M797.011 1472.72 L813.331 1472.72 L813.331 1476.65 L791.386 1476.65 L791.386 1472.72 Q794.048 1469.96 798.632 1465.33 Q803.238 1460.68 804.419 1459.34 Q806.664 1456.81 807.544 1455.08 Q808.447 1453.32 808.447 1451.63 Q808.447 1448.87 806.502 1447.14 Q804.581 1445.4 801.479 1445.4 Q799.28 1445.4 796.826 1446.17 Q794.396 1446.93 791.618 1448.48 L791.618 1443.76 Q794.442 1442.62 796.896 1442.05 Q799.349 1441.47 801.386 1441.47 Q806.757 1441.47 809.951 1444.15 Q813.146 1446.84 813.146 1451.33 Q813.146 1453.46 812.335 1455.38 Q811.548 1457.28 809.442 1459.87 Q808.863 1460.54 805.761 1463.76 Q802.66 1466.95 797.011 1472.72 Z" fill="#000000" fill-rule="evenodd" fill-opacity="1" /><path clip-path="url(#clip290)" d="M 0 0 M818.446 1442.09 L836.803 1442.09 L836.803 1446.03 L822.729 1446.03 L822.729 1454.5 Q823.747 1454.15 824.766 1453.99 Q825.784 1453.8 826.803 1453.8 Q832.59 1453.8 835.97 1456.98 Q839.349 1460.15 839.349 1465.56 Q839.349 1471.14 835.877 1474.24 Q832.405 1477.32 826.085 1477.32 Q823.909 1477.32 821.641 1476.95 Q819.396 1476.58 816.988 1475.84 L816.988 1471.14 Q819.071 1472.28 821.294 1472.83 Q823.516 1473.39 825.993 1473.39 Q829.997 1473.39 832.335 1471.28 Q834.673 1469.18 834.673 1465.56 Q834.673 1461.95 832.335 1459.85 Q829.997 1457.74 825.993 1457.74 Q824.118 1457.74 822.243 1458.16 Q820.391 1458.57 818.446 1459.45 L818.446 1442.09 Z" fill="#000000" fill-rule="evenodd" fill-opacity="1" /><path clip-path="url(#clip290)" d="M 0 0 M1263.95 1445.17 Q1260.34 1445.17 1258.51 1448.74 Q1256.7 1452.28 1256.7 1459.41 Q1256.7 1466.51 1258.51 1470.08 Q1260.34 1473.62 1263.95 1473.62 Q1267.58 1473.62 1269.39 1470.08 Q1271.22 1466.51 1271.22 1459.41 Q1271.22 1452.28 1269.39 1448.74 Q1267.58 1445.17 1263.95 1445.17 M1263.95 1441.47 Q1269.76 1441.47 1272.82 1446.07 Q1275.89 1450.66 1275.89 1459.41 Q1275.89 1468.13 1272.82 1472.74 Q1269.76 1477.32 1263.95 1477.32 Q1258.14 1477.32 1255.06 1472.74 Q1252.01 1468.13 1252.01 1459.41 Q1252.01 1450.66 1255.06 1446.07 Q1258.14 1441.47 1263.95 1441.47 Z" fill="#000000" fill-rule="evenodd" fill-opacity="1" /><path clip-path="url(#clip290)" d="M 0 0 M1280.96 1470.77 L1285.85 1470.77 L1285.85 1476.65 L1280.96 1476.65 L1280.96 1470.77 Z" fill="#000000" fill-rule="evenodd" fill-opacity="1" /><path clip-path="url(#clip290)" d="M 0 0 M1290.96 1442.09 L1309.32 1442.09 L1309.32 1446.03 L1295.25 1446.03 L1295.25 1454.5 Q1296.26 1454.15 1297.28 1453.99 Q1298.3 1453.8 1299.32 1453.8 Q1305.11 1453.8 1308.49 1456.98 Q1311.87 1460.15 1311.87 1465.56 Q1311.87 1471.14 1308.39 1474.24 Q1304.92 1477.32 1298.6 1477.32 Q1296.43 1477.32 1294.16 1476.95 Q1291.91 1476.58 1289.51 1475.84 L1289.51 1471.14 Q1291.59 1472.28 1293.81 1472.83 Q1296.03 1473.39 1298.51 1473.39 Q1302.51 1473.39 1304.85 1471.28 Q1307.19 1469.18 1307.19 1465.56 Q1307.19 1461.95 1304.85 1459.85 Q1302.51 1457.74 1298.51 1457.74 Q1296.64 1457.74 1294.76 1458.16 Q1292.91 1458.57 1290.96 1459.45 L1290.96 1442.09 Z" fill="#000000" fill-rule="evenodd" fill-opacity="1" /><path clip-path="url(#clip290)" d="M 0 0 M1326.94 1445.17 Q1323.32 1445.17 1321.5 1448.74 Q1319.69 1452.28 1319.69 1459.41 Q1319.69 1466.51 1321.5 1470.08 Q1323.32 1473.62 1326.94 1473.62 Q1330.57 1473.62 1332.38 1470.08 Q1334.2 1466.51 1334.2 1459.41 Q1334.2 1452.28 1332.38 1448.74 Q1330.57 1445.17 1326.94 1445.17 M1326.94 1441.47 Q1332.75 1441.47 1335.8 1446.07 Q1338.88 1450.66 1338.88 1459.41 Q1338.88 1468.13 1335.8 1472.74 Q1332.75 1477.32 1326.94 1477.32 Q1321.13 1477.32 1318.05 1472.74 Q1314.99 1468.13 1314.99 1459.41 Q1314.99 1450.66 1318.05 1446.07 Q1321.13 1441.47 1326.94 1441.47 Z" fill="#000000" fill-rule="evenodd" fill-opacity="1" /><path clip-path="url(#clip290)" d="M 0 0 M1763.13 1445.17 Q1759.52 1445.17 1757.69 1448.74 Q1755.89 1452.28 1755.89 1459.41 Q1755.89 1466.51 1757.69 1470.08 Q1759.52 1473.62 1763.13 1473.62 Q1766.77 1473.62 1768.57 1470.08 Q1770.4 1466.51 1770.4 1459.41 Q1770.4 1452.28 1768.57 1448.74 Q1766.77 1445.17 1763.13 1445.17 M1763.13 1441.47 Q1768.94 1441.47 1772 1446.07 Q1775.08 1450.66 1775.08 1459.41 Q1775.08 1468.13 1772 1472.74 Q1768.94 1477.32 1763.13 1477.32 Q1757.32 1477.32 1754.25 1472.74 Q1751.19 1468.13 1751.19 1459.41 Q1751.19 1450.66 1754.25 1446.07 Q1757.32 1441.47 1763.13 1441.47 Z" fill="#000000" fill-rule="evenodd" fill-opacity="1" /><path clip-path="url(#clip290)" d="M 0 0 M1780.15 1470.77 L1785.03 1470.77 L1785.03 1476.65 L1780.15 1476.65 L1780.15 1470.77 Z" fill="#000000" fill-rule="evenodd" fill-opacity="1" /><path clip-path="url(#clip290)" d="M 0 0 M1788.92 1442.09 L1811.14 1442.09 L1811.14 1444.08 L1798.6 1476.65 L1793.71 1476.65 L1805.52 1446.03 L1788.92 1446.03 L1788.92 1442.09 Z" fill="#000000" fill-rule="evenodd" fill-opacity="1" /><path clip-path="url(#clip290)" d="M 0 0 M1816.26 1442.09 L1834.62 1442.09 L1834.62 1446.03 L1820.54 1446.03 L1820.54 1454.5 Q1821.56 1454.15 1822.58 1453.99 Q1823.6 1453.8 1824.62 1453.8 Q1830.4 1453.8 1833.78 1456.98 Q1837.16 1460.15 1837.16 1465.56 Q1837.16 1471.14 1833.69 1474.24 Q1830.22 1477.32 1823.9 1477.32 Q1821.72 1477.32 1819.45 1476.95 Q1817.21 1476.58 1814.8 1475.84 L1814.8 1471.14 Q1816.88 1472.28 1819.11 1472.83 Q1821.33 1473.39 1823.8 1473.39 Q1827.81 1473.39 1830.15 1471.28 Q1832.49 1469.18 1832.49 1465.56 Q1832.49 1461.95 1830.15 1459.85 Q1827.81 1457.74 1823.8 1457.74 Q1821.93 1457.74 1820.05 1458.16 Q1818.2 1458.57 1816.26 1459.45 L1816.26 1442.09 Z" fill="#000000" fill-rule="evenodd" fill-opacity="1" /><path clip-path="url(#clip290)" d="M 0 0 M2251.3 1472.72 L2258.94 1472.72 L2258.94 1446.35 L2250.63 1448.02 L2250.63 1443.76 L2258.89 1442.09 L2263.57 1442.09 L2263.57 1472.72 L2271.21 1472.72 L2271.21 1476.65 L2251.3 1476.65 L2251.3 1472.72 Z" fill="#000000" fill-rule="evenodd" fill-opacity="1" /><path clip-path="url(#clip290)" d="M 0 0 M2276.28 1470.77 L2281.16 1470.77 L2281.16 1476.65 L2276.28 1476.65 L2276.28 1470.77 Z" fill="#000000" fill-rule="evenodd" fill-opacity="1" /><path clip-path="url(#clip290)" d="M 0 0 M2296.23 1445.17 Q2292.62 1445.17 2290.79 1448.74 Q2288.98 1452.28 2288.98 1459.41 Q2288.98 1466.51 2290.79 1470.08 Q2292.62 1473.62 2296.23 1473.62 Q2299.86 1473.62 2301.67 1470.08 Q2303.5 1466.51 2303.5 1459.41 Q2303.5 1452.28 2301.67 1448.74 Q2299.86 1445.17 2296.23 1445.17 M2296.23 1441.47 Q2302.04 1441.47 2305.1 1446.07 Q2308.17 1450.66 2308.17 1459.41 Q2308.17 1468.13 2305.1 1472.74 Q2302.04 1477.32 2296.23 1477.32 Q2290.42 1477.32 2287.34 1472.74 Q2284.29 1468.13 2284.29 1459.41 Q2284.29 1450.66 2287.34 1446.07 Q2290.42 1441.47 2296.23 1441.47 Z" fill="#000000" fill-rule="evenodd" fill-opacity="1" /><path clip-path="url(#clip290)" d="M 0 0 M2323.24 1445.17 Q2319.63 1445.17 2317.8 1448.74 Q2316 1452.28 2316 1459.41 Q2316 1466.51 2317.8 1470.08 Q2319.63 1473.62 2323.24 1473.62 Q2326.88 1473.62 2328.68 1470.08 Q2330.51 1466.51 2330.51 1459.41 Q2330.51 1452.28 2328.68 1448.74 Q2326.88 1445.17 2323.24 1445.17 M2323.24 1441.47 Q2329.05 1441.47 2332.11 1446.07 Q2335.19 1450.66 2335.19 1459.41 Q2335.19 1468.13 2332.11 1472.74 Q2329.05 1477.32 2323.24 1477.32 Q2317.43 1477.32 2314.35 1472.74 Q2311.3 1468.13 2311.3 1459.41 Q2311.3 1450.66 2314.35 1446.07 Q2317.43 1441.47 2323.24 1441.47 Z" fill="#000000" fill-rule="evenodd" fill-opacity="1" /><path clip-path="url(#clip290)" d="M 0 0 M138.205 1373.49 Q134.593 1373.49 132.765 1377.06 Q130.959 1380.6 130.959 1387.73 Q130.959 1394.84 132.765 1398.4 Q134.593 1401.94 138.205 1401.94 Q141.839 1401.94 143.644 1398.4 Q145.473 1394.84 145.473 1387.73 Q145.473 1380.6 143.644 1377.06 Q141.839 1373.49 138.205 1373.49 M138.205 1369.79 Q144.015 1369.79 147.07 1374.4 Q150.149 1378.98 150.149 1387.73 Q150.149 1396.46 147.07 1401.06 Q144.015 1405.65 138.205 1405.65 Q132.394 1405.65 129.316 1401.06 Q126.26 1396.46 126.26 1387.73 Q126.26 1378.98 129.316 1374.4 Q132.394 1369.79 138.205 1369.79 Z" fill="#000000" fill-rule="evenodd" fill-opacity="1" /><path clip-path="url(#clip290)" d="M 0 0 M155.218 1399.1 L160.103 1399.1 L160.103 1404.98 L155.218 1404.98 L155.218 1399.1 Z" fill="#000000" fill-rule="evenodd" fill-opacity="1" /><path clip-path="url(#clip290)" d="M 0 0 M175.172 1373.49 Q171.561 1373.49 169.732 1377.06 Q167.927 1380.6 167.927 1387.73 Q167.927 1394.84 169.732 1398.4 Q171.561 1401.94 175.172 1401.94 Q178.806 1401.94 180.612 1398.4 Q182.44 1394.84 182.44 1387.73 Q182.44 1380.6 180.612 1377.06 Q178.806 1373.49 175.172 1373.49 M175.172 1369.79 Q180.982 1369.79 184.038 1374.4 Q187.116 1378.98 187.116 1387.73 Q187.116 1396.46 184.038 1401.06 Q180.982 1405.65 175.172 1405.65 Q169.362 1405.65 166.283 1401.06 Q163.228 1396.46 163.228 1387.73 Q163.228 1378.98 166.283 1374.4 Q169.362 1369.79 175.172 1369.79 Z" fill="#000000" fill-rule="evenodd" fill-opacity="1" /><path clip-path="url(#clip290)" d="M 0 0 M202.186 1373.49 Q198.575 1373.49 196.746 1377.06 Q194.94 1380.6 194.94 1387.73 Q194.94 1394.84 196.746 1398.4 Q198.575 1401.94 202.186 1401.94 Q205.82 1401.94 207.625 1398.4 Q209.454 1394.84 209.454 1387.73 Q209.454 1380.6 207.625 1377.06 Q205.82 1373.49 202.186 1373.49 M202.186 1369.79 Q207.996 1369.79 211.051 1374.4 Q214.13 1378.98 214.13 1387.73 Q214.13 1396.46 211.051 1401.06 Q207.996 1405.65 202.186 1405.65 Q196.376 1405.65 193.297 1401.06 Q190.241 1396.46 190.241 1387.73 Q190.241 1378.98 193.297 1374.4 Q196.376 1369.79 202.186 1369.79 Z" fill="#000000" fill-rule="evenodd" fill-opacity="1" /><path clip-path="url(#clip290)" d="M 0 0 M140.797 1077.7 Q137.186 1077.7 135.357 1081.26 Q133.552 1084.8 133.552 1091.93 Q133.552 1099.04 135.357 1102.6 Q137.186 1106.15 140.797 1106.15 Q144.431 1106.15 146.237 1102.6 Q148.066 1099.04 148.066 1091.93 Q148.066 1084.8 146.237 1081.26 Q144.431 1077.7 140.797 1077.7 M140.797 1073.99 Q146.607 1073.99 149.663 1078.6 Q152.741 1083.18 152.741 1091.93 Q152.741 1100.66 149.663 1105.27 Q146.607 1109.85 140.797 1109.85 Q134.987 1109.85 131.908 1105.27 Q128.853 1100.66 128.853 1091.93 Q128.853 1083.18 131.908 1078.6 Q134.987 1073.99 140.797 1073.99 Z" fill="#000000" fill-rule="evenodd" fill-opacity="1" /><path clip-path="url(#clip290)" d="M 0 0 M157.811 1103.3 L162.695 1103.3 L162.695 1109.18 L157.811 1109.18 L157.811 1103.3 Z" fill="#000000" fill-rule="evenodd" fill-opacity="1" /><path clip-path="url(#clip290)" d="M 0 0 M171.792 1105.24 L188.112 1105.24 L188.112 1109.18 L166.167 1109.18 L166.167 1105.24 Q168.829 1102.49 173.413 1097.86 Q178.019 1093.21 179.2 1091.86 Q181.445 1089.34 182.325 1087.6 Q183.227 1085.84 183.227 1084.16 Q183.227 1081.4 181.283 1079.66 Q179.362 1077.93 176.26 1077.93 Q174.061 1077.93 171.607 1078.69 Q169.177 1079.46 166.399 1081.01 L166.399 1076.28 Q169.223 1075.15 171.677 1074.57 Q174.13 1073.99 176.167 1073.99 Q181.538 1073.99 184.732 1076.68 Q187.926 1079.36 187.926 1083.85 Q187.926 1085.98 187.116 1087.91 Q186.329 1089.8 184.223 1092.4 Q183.644 1093.07 180.542 1096.28 Q177.44 1099.48 171.792 1105.24 Z" fill="#000000" fill-rule="evenodd" fill-opacity="1" /><path clip-path="url(#clip290)" d="M 0 0 M193.227 1074.62 L211.584 1074.62 L211.584 1078.55 L197.51 1078.55 L197.51 1087.03 Q198.528 1086.68 199.547 1086.52 Q200.565 1086.33 201.584 1086.33 Q207.371 1086.33 210.75 1089.5 Q214.13 1092.67 214.13 1098.09 Q214.13 1103.67 210.658 1106.77 Q207.186 1109.85 200.866 1109.85 Q198.69 1109.85 196.422 1109.48 Q194.176 1109.11 191.769 1108.37 L191.769 1103.67 Q193.852 1104.8 196.075 1105.36 Q198.297 1105.91 200.774 1105.91 Q204.778 1105.91 207.116 1103.81 Q209.454 1101.7 209.454 1098.09 Q209.454 1094.48 207.116 1092.37 Q204.778 1090.27 200.774 1090.27 Q198.899 1090.27 197.024 1090.68 Q195.172 1091.1 193.227 1091.98 L193.227 1074.62 Z" fill="#000000" fill-rule="evenodd" fill-opacity="1" /><path clip-path="url(#clip290)" d="M 0 0 M139.2 781.899 Q135.589 781.899 133.76 785.464 Q131.955 789.006 131.955 796.135 Q131.955 803.242 133.76 806.806 Q135.589 810.348 139.2 810.348 Q142.834 810.348 144.64 806.806 Q146.468 803.242 146.468 796.135 Q146.468 789.006 144.64 785.464 Q142.834 781.899 139.2 781.899 M139.2 778.195 Q145.01 778.195 148.066 782.802 Q151.144 787.385 151.144 796.135 Q151.144 804.862 148.066 809.468 Q145.01 814.052 139.2 814.052 Q133.39 814.052 130.311 809.468 Q127.256 804.862 127.256 796.135 Q127.256 787.385 130.311 782.802 Q133.39 778.195 139.2 778.195 Z" fill="#000000" fill-rule="evenodd" fill-opacity="1" /><path clip-path="url(#clip290)" d="M 0 0 M156.214 807.501 L161.098 807.501 L161.098 813.38 L156.214 813.38 L156.214 807.501 Z" fill="#000000" fill-rule="evenodd" fill-opacity="1" /><path clip-path="url(#clip290)" d="M 0 0 M166.214 778.82 L184.57 778.82 L184.57 782.756 L170.496 782.756 L170.496 791.228 Q171.515 790.881 172.533 790.718 Q173.552 790.533 174.57 790.533 Q180.357 790.533 183.737 793.705 Q187.116 796.876 187.116 802.292 Q187.116 807.871 183.644 810.973 Q180.172 814.052 173.852 814.052 Q171.677 814.052 169.408 813.681 Q167.163 813.311 164.755 812.57 L164.755 807.871 Q166.839 809.005 169.061 809.561 Q171.283 810.117 173.76 810.117 Q177.765 810.117 180.102 808.01 Q182.44 805.904 182.44 802.292 Q182.44 798.681 180.102 796.575 Q177.765 794.468 173.76 794.468 Q171.885 794.468 170.01 794.885 Q168.158 795.302 166.214 796.181 L166.214 778.82 Z" fill="#000000" fill-rule="evenodd" fill-opacity="1" /><path clip-path="url(#clip290)" d="M 0 0 M202.186 781.899 Q198.575 781.899 196.746 785.464 Q194.94 789.006 194.94 796.135 Q194.94 803.242 196.746 806.806 Q198.575 810.348 202.186 810.348 Q205.82 810.348 207.625 806.806 Q209.454 803.242 209.454 796.135 Q209.454 789.006 207.625 785.464 Q205.82 781.899 202.186 781.899 M202.186 778.195 Q207.996 778.195 211.051 782.802 Q214.13 787.385 214.13 796.135 Q214.13 804.862 211.051 809.468 Q207.996 814.052 202.186 814.052 Q196.376 814.052 193.297 809.468 Q190.241 804.862 190.241 796.135 Q190.241 787.385 193.297 782.802 Q196.376 778.195 202.186 778.195 Z" fill="#000000" fill-rule="evenodd" fill-opacity="1" /><path clip-path="url(#clip290)" d="M 0 0 M140.103 486.101 Q136.492 486.101 134.663 489.666 Q132.857 493.208 132.857 500.337 Q132.857 507.444 134.663 511.009 Q136.492 514.55 140.103 514.55 Q143.737 514.55 145.542 511.009 Q147.371 507.444 147.371 500.337 Q147.371 493.208 145.542 489.666 Q143.737 486.101 140.103 486.101 M140.103 482.398 Q145.913 482.398 148.968 487.004 Q152.047 491.587 152.047 500.337 Q152.047 509.064 148.968 513.671 Q145.913 518.254 140.103 518.254 Q134.293 518.254 131.214 513.671 Q128.158 509.064 128.158 500.337 Q128.158 491.587 131.214 487.004 Q134.293 482.398 140.103 482.398 Z" fill="#000000" fill-rule="evenodd" fill-opacity="1" /><path clip-path="url(#clip290)" d="M 0 0 M157.116 511.703 L162.001 511.703 L162.001 517.583 L157.116 517.583 L157.116 511.703 Z" fill="#000000" fill-rule="evenodd" fill-opacity="1" /><path clip-path="url(#clip290)" d="M 0 0 M165.89 483.023 L188.112 483.023 L188.112 485.013 L175.565 517.583 L170.681 517.583 L182.487 486.958 L165.89 486.958 L165.89 483.023 Z" fill="#000000" fill-rule="evenodd" fill-opacity="1" /><path clip-path="url(#clip290)" d="M 0 0 M193.227 483.023 L211.584 483.023 L211.584 486.958 L197.51 486.958 L197.51 495.43 Q198.528 495.083 199.547 494.921 Q200.565 494.735 201.584 494.735 Q207.371 494.735 210.75 497.907 Q214.13 501.078 214.13 506.495 Q214.13 512.073 210.658 515.175 Q207.186 518.254 200.866 518.254 Q198.69 518.254 196.422 517.884 Q194.176 517.513 191.769 516.772 L191.769 512.073 Q193.852 513.208 196.075 513.763 Q198.297 514.319 200.774 514.319 Q204.778 514.319 207.116 512.212 Q209.454 510.106 209.454 506.495 Q209.454 502.884 207.116 500.777 Q204.778 498.671 200.774 498.671 Q198.899 498.671 197.024 499.087 Q195.172 499.504 193.227 500.384 L193.227 483.023 Z" fill="#000000" fill-rule="evenodd" fill-opacity="1" /><path clip-path="url(#clip290)" d="M 0 0 M130.242 217.85 L137.88 217.85 L137.88 191.484 L129.57 193.151 L129.57 188.891 L137.834 187.225 L142.51 187.225 L142.51 217.85 L150.149 217.85 L150.149 221.785 L130.242 221.785 L130.242 217.85 Z" fill="#000000" fill-rule="evenodd" fill-opacity="1" /><path clip-path="url(#clip290)" d="M 0 0 M155.218 215.905 L160.103 215.905 L160.103 221.785 L155.218 221.785 L155.218 215.905 Z" fill="#000000" fill-rule="evenodd" fill-opacity="1" /><path clip-path="url(#clip290)" d="M 0 0 M175.172 190.303 Q171.561 190.303 169.732 193.868 Q167.927 197.41 167.927 204.54 Q167.927 211.646 169.732 215.211 Q171.561 218.752 175.172 218.752 Q178.806 218.752 180.612 215.211 Q182.44 211.646 182.44 204.54 Q182.44 197.41 180.612 193.868 Q178.806 190.303 175.172 190.303 M175.172 186.6 Q180.982 186.6 184.038 191.206 Q187.116 195.79 187.116 204.54 Q187.116 213.266 184.038 217.873 Q180.982 222.456 175.172 222.456 Q169.362 222.456 166.283 217.873 Q163.228 213.266 163.228 204.54 Q163.228 195.79 166.283 191.206 Q169.362 186.6 175.172 186.6 Z" fill="#000000" fill-rule="evenodd" fill-opacity="1" /><path clip-path="url(#clip290)" d="M 0 0 M202.186 190.303 Q198.575 190.303 196.746 193.868 Q194.94 197.41 194.94 204.54 Q194.94 211.646 196.746 215.211 Q198.575 218.752 202.186 218.752 Q205.82 218.752 207.625 215.211 Q209.454 211.646 209.454 204.54 Q209.454 197.41 207.625 193.868 Q205.82 190.303 202.186 190.303 M202.186 186.6 Q207.996 186.6 211.051 191.206 Q214.13 195.79 214.13 204.54 Q214.13 213.266 211.051 217.873 Q207.996 222.456 202.186 222.456 Q196.376 222.456 193.297 217.873 Q190.241 213.266 190.241 204.54 Q190.241 195.79 193.297 191.206 Q196.376 186.6 202.186 186.6 Z" fill="#000000" fill-rule="evenodd" fill-opacity="1" /><path clip-path="url(#clip290)" d="M 0 0 M1294.5 1510.27 L1294.5 1520.4 L1306.57 1520.4 L1306.57 1524.95 L1294.5 1524.95 L1294.5 1544.3 Q1294.5 1548.66 1295.68 1549.9 Q1296.89 1551.14 1300.55 1551.14 L1306.57 1551.14 L1306.57 1556.04 L1300.55 1556.04 Q1293.77 1556.04 1291.19 1553.53 Q1288.62 1550.98 1288.62 1544.3 L1288.62 1524.95 L1284.32 1524.95 L1284.32 1520.4 L1288.62 1520.4 L1288.62 1510.27 L1294.5 1510.27 Z" fill="#000000" fill-rule="evenodd" fill-opacity="1" /><path clip-path="url(#clip290)" d="M 0 0 M73.9359 782.159 L52.3562 782.159 L52.3562 776.303 L73.7131 776.303 Q78.7739 776.303 81.3202 774.329 Q83.8346 772.356 83.8346 768.409 Q83.8346 763.667 80.8109 760.929 Q77.7872 758.16 72.5673 758.16 L52.3562 758.16 L52.3562 752.304 L88.0042 752.304 L88.0042 758.16 L82.5296 758.16 Q85.7762 760.293 87.3676 763.126 Q88.9272 765.927 88.9272 769.65 Q88.9272 775.793 85.1078 778.976 Q81.2883 782.159 73.9359 782.159 M51.4968 767.422 L51.4968 767.422 Z" fill="#000000" fill-rule="evenodd" fill-opacity="1" /><path clip-path="url(#clip290)" d="M 0 0 M38.5426 732.093 Q45.8632 736.358 53.0246 738.427 Q60.186 740.496 67.5384 740.496 Q74.8908 740.496 82.1159 738.427 Q89.3091 736.326 96.5979 732.093 L96.5979 737.185 Q89.1182 741.96 81.8931 744.347 Q74.668 746.702 67.5384 746.702 Q60.4406 746.702 53.2474 744.347 Q46.0542 741.991 38.5426 737.185 L38.5426 732.093 Z" fill="#000000" fill-rule="evenodd" fill-opacity="1" /><path clip-path="url(#clip290)" d="M 0 0 M42.2347 720.157 L52.3562 720.157 L52.3562 708.094 L56.9077 708.094 L56.9077 720.157 L76.2594 720.157 Q80.6199 720.157 81.8613 718.979 Q83.1026 717.77 83.1026 714.11 L83.1026 708.094 L88.0042 708.094 L88.0042 714.11 Q88.0042 720.889 85.4897 723.467 Q82.9434 726.045 76.2594 726.045 L56.9077 726.045 L56.9077 730.342 L52.3562 730.342 L52.3562 726.045 L42.2347 726.045 L42.2347 720.157 Z" fill="#000000" fill-rule="evenodd" fill-opacity="1" /><path clip-path="url(#clip290)" d="M 0 0 M38.5426 702.874 L38.5426 697.782 Q46.0542 693.007 53.2474 690.652 Q60.4406 688.265 67.5384 688.265 Q74.668 688.265 81.8931 690.652 Q89.1182 693.007 96.5979 697.782 L96.5979 702.874 Q89.3091 698.641 82.1159 696.572 Q74.8908 694.471 67.5384 694.471 Q60.186 694.471 53.0246 696.572 Q45.8632 698.641 38.5426 702.874 Z" fill="#000000" fill-rule="evenodd" fill-opacity="1" /><polyline clip-path="url(#clip292)" style="stroke:#009af9; stroke-width:8; stroke-opacity:1; fill:none" points="
  297.978,204.505 309.377,242.617 322.675,285.528 339.175,336.546 357.919,391.641 379.189,450.67 402.479,511.304 427.713,572.576 454.583,633.119 482.936,692.134 
  512.572,748.894 543.359,802.956 575.168,854.012 607.904,901.907 641.493,946.584 675.876,988.066 711.014,1026.43 746.879,1061.79 783.455,1094.29 820.737,1124.09 
  858.727,1151.34 897.434,1176.21 936.876,1198.86 977.072,1219.45 1018.05,1238.13 1059.84,1255.05 1102.47,1270.34 1145.99,1284.13 1190.43,1296.54 1235.84,1307.68 
  1282.27,1317.67 1329.77,1326.6 1378.4,1334.57 1428.22,1341.65 1479.3,1347.93 1531.7,1353.49 1585.5,1358.39 1640.78,1362.69 1697.63,1366.46 1756.15,1369.74 
  1816.43,1372.6 1878.59,1375.07 1942.76,1377.19 2009.05,1379.01 2077.62,1380.57 2148.62,1381.88 2222.24,1382.99 2292.91,1383.85 
  "/>
<polyline clip-path="url(#clip292)" style="stroke:#009af9; stroke-width:4; stroke-opacity:1; fill:none" points="
  297.978,322.824 297.978,86.1857 
  "/>
<polyline clip-path="url(#clip292)" style="stroke:#009af9; stroke-width:4; stroke-opacity:1; fill:none" points="
  309.377,357.125 309.377,128.109 
  "/>
<polyline clip-path="url(#clip292)" style="stroke:#009af9; stroke-width:4; stroke-opacity:1; fill:none" points="
  322.675,395.745 322.675,175.312 
  "/>
<polyline clip-path="url(#clip292)" style="stroke:#009af9; stroke-width:4; stroke-opacity:1; fill:none" points="
  339.175,441.661 339.175,231.431 
  "/>
<polyline clip-path="url(#clip292)" style="stroke:#009af9; stroke-width:4; stroke-opacity:1; fill:none" points="
  357.919,491.247 357.919,292.036 
  "/>
<polyline clip-path="url(#clip292)" style="stroke:#009af9; stroke-width:4; stroke-opacity:1; fill:none" points="
  379.189,544.373 379.189,356.968 
  "/>
<polyline clip-path="url(#clip292)" style="stroke:#009af9; stroke-width:4; stroke-opacity:1; fill:none" points="
  402.479,598.944 402.479,423.665 
  "/>
<polyline clip-path="url(#clip292)" style="stroke:#009af9; stroke-width:4; stroke-opacity:1; fill:none" points="
  427.713,654.088 427.713,491.064 
  "/>
<polyline clip-path="url(#clip292)" style="stroke:#009af9; stroke-width:4; stroke-opacity:1; fill:none" points="
  454.583,708.577 454.583,557.662 
  "/>
<polyline clip-path="url(#clip292)" style="stroke:#009af9; stroke-width:4; stroke-opacity:1; fill:none" points="
  482.936,761.69 482.936,622.578 
  "/>
<polyline clip-path="url(#clip292)" style="stroke:#009af9; stroke-width:4; stroke-opacity:1; fill:none" points="
  512.572,812.774 512.572,685.013 
  "/>
<polyline clip-path="url(#clip292)" style="stroke:#009af9; stroke-width:4; stroke-opacity:1; fill:none" points="
  543.359,861.43 543.359,744.482 
  "/>
<polyline clip-path="url(#clip292)" style="stroke:#009af9; stroke-width:4; stroke-opacity:1; fill:none" points="
  575.168,907.38 575.168,800.644 
  "/>
<polyline clip-path="url(#clip292)" style="stroke:#009af9; stroke-width:4; stroke-opacity:1; fill:none" points="
  607.904,950.486 607.904,853.328 
  "/>
<polyline clip-path="url(#clip292)" style="stroke:#009af9; stroke-width:4; stroke-opacity:1; fill:none" points="
  641.493,990.695 641.493,902.472 
  "/>
<polyline clip-path="url(#clip292)" style="stroke:#009af9; stroke-width:4; stroke-opacity:1; fill:none" points="
  675.876,1028.03 675.876,948.103 
  "/>
<polyline clip-path="url(#clip292)" style="stroke:#009af9; stroke-width:4; stroke-opacity:1; fill:none" points="
  711.014,1062.56 711.014,990.303 
  "/>
<polyline clip-path="url(#clip292)" style="stroke:#009af9; stroke-width:4; stroke-opacity:1; fill:none" points="
  746.879,1094.38 746.879,1029.2 
  "/>
<polyline clip-path="url(#clip292)" style="stroke:#009af9; stroke-width:4; stroke-opacity:1; fill:none" points="
  783.455,1123.63 783.455,1064.95 
  "/>
<polyline clip-path="url(#clip292)" style="stroke:#009af9; stroke-width:4; stroke-opacity:1; fill:none" points="
  820.737,1150.45 820.737,1097.73 
  "/>
<polyline clip-path="url(#clip292)" style="stroke:#009af9; stroke-width:4; stroke-opacity:1; fill:none" points="
  858.727,1174.97 858.727,1127.7 
  "/>
<polyline clip-path="url(#clip292)" style="stroke:#009af9; stroke-width:4; stroke-opacity:1; fill:none" points="
  897.434,1197.36 897.434,1155.06 
  "/>
<polyline clip-path="url(#clip292)" style="stroke:#009af9; stroke-width:4; stroke-opacity:1; fill:none" points="
  936.876,1217.74 936.876,1179.98 
  "/>
<polyline clip-path="url(#clip292)" style="stroke:#009af9; stroke-width:4; stroke-opacity:1; fill:none" points="
  977.072,1236.28 977.072,1202.63 
  "/>
<polyline clip-path="url(#clip292)" style="stroke:#009af9; stroke-width:4; stroke-opacity:1; fill:none" points="
  1018.05,1253.09 1018.05,1223.18 
  "/>
<polyline clip-path="url(#clip292)" style="stroke:#009af9; stroke-width:4; stroke-opacity:1; fill:none" points="
  1059.84,1268.31 1059.84,1241.78 
  "/>
<polyline clip-path="url(#clip292)" style="stroke:#009af9; stroke-width:4; stroke-opacity:1; fill:none" points="
  1102.47,1282.07 1102.47,1258.6 
  "/>
<polyline clip-path="url(#clip292)" style="stroke:#009af9; stroke-width:4; stroke-opacity:1; fill:none" points="
  1145.99,1294.48 1145.99,1273.77 
  "/>
<polyline clip-path="url(#clip292)" style="stroke:#009af9; stroke-width:4; stroke-opacity:1; fill:none" points="
  1190.43,1305.65 1190.43,1287.42 
  "/>
<polyline clip-path="url(#clip292)" style="stroke:#009af9; stroke-width:4; stroke-opacity:1; fill:none" points="
  1235.84,1315.69 1235.84,1299.68 
  "/>
<polyline clip-path="url(#clip292)" style="stroke:#009af9; stroke-width:4; stroke-opacity:1; fill:none" points="
  1282.27,1324.68 1282.27,1310.67 
  "/>
<polyline clip-path="url(#clip292)" style="stroke:#009af9; stroke-width:4; stroke-opacity:1; fill:none" points="
  1329.77,1332.71 1329.77,1320.5 
  "/>
<polyline clip-path="url(#clip292)" style="stroke:#009af9; stroke-width:4; stroke-opacity:1; fill:none" points="
  1378.4,1339.88 1378.4,1329.26 
  "/>
<polyline clip-path="url(#clip292)" style="stroke:#009af9; stroke-width:4; stroke-opacity:1; fill:none" points="
  1428.22,1346.26 1428.22,1337.05 
  "/>
<polyline clip-path="url(#clip292)" style="stroke:#009af9; stroke-width:4; stroke-opacity:1; fill:none" points="
  1479.3,1351.91 1479.3,1343.96 
  "/>
<polyline clip-path="url(#clip292)" style="stroke:#009af9; stroke-width:4; stroke-opacity:1; fill:none" points="
  1531.7,1356.91 1531.7,1350.07 
  "/>
<polyline clip-path="url(#clip292)" style="stroke:#009af9; stroke-width:4; stroke-opacity:1; fill:none" points="
  1585.5,1361.32 1585.5,1355.46 
  "/>
<polyline clip-path="url(#clip292)" style="stroke:#009af9; stroke-width:4; stroke-opacity:1; fill:none" points="
  1640.78,1365.19 1640.78,1360.19 
  "/>
<polyline clip-path="url(#clip292)" style="stroke:#009af9; stroke-width:4; stroke-opacity:1; fill:none" points="
  1697.63,1368.58 1697.63,1364.33 
  "/>
<polyline clip-path="url(#clip292)" style="stroke:#009af9; stroke-width:4; stroke-opacity:1; fill:none" points="
  1756.15,1371.54 1756.15,1367.95 
  "/>
<polyline clip-path="url(#clip292)" style="stroke:#009af9; stroke-width:4; stroke-opacity:1; fill:none" points="
  1816.43,1374.11 1816.43,1371.09 
  "/>
<polyline clip-path="url(#clip292)" style="stroke:#009af9; stroke-width:4; stroke-opacity:1; fill:none" points="
  1878.59,1376.33 1878.59,1373.8 
  "/>
<polyline clip-path="url(#clip292)" style="stroke:#009af9; stroke-width:4; stroke-opacity:1; fill:none" points="
  1942.76,1378.24 1942.76,1376.14 
  "/>
<polyline clip-path="url(#clip292)" style="stroke:#009af9; stroke-width:4; stroke-opacity:1; fill:none" points="
  2009.05,1379.88 2009.05,1378.15 
  "/>
<polyline clip-path="url(#clip292)" style="stroke:#009af9; stroke-width:4; stroke-opacity:1; fill:none" points="
  2077.62,1381.28 2077.62,1379.85 
  "/>
<polyline clip-path="url(#clip292)" style="stroke:#009af9; stroke-width:4; stroke-opacity:1; fill:none" points="
  2148.62,1382.46 2148.62,1381.3 
  "/>
<polyline clip-path="url(#clip292)" style="stroke:#009af9; stroke-width:4; stroke-opacity:1; fill:none" points="
  2222.24,1383.46 2222.24,1382.52 
  "/>
<polyline clip-path="url(#clip292)" style="stroke:#009af9; stroke-width:4; stroke-opacity:1; fill:none" points="
  2292.91,1384.24 2292.91,1383.47 
  "/>
<line clip-path="url(#clip292)" x1="313.978" y1="322.824" x2="281.978" y2="322.824" style="stroke:#009af9; stroke-width:3.2; stroke-opacity:1"/>
<line clip-path="url(#clip292)" x1="313.978" y1="86.1857" x2="281.978" y2="86.1857" style="stroke:#009af9; stroke-width:3.2; stroke-opacity:1"/>
<line clip-path="url(#clip292)" x1="325.377" y1="357.125" x2="293.377" y2="357.125" style="stroke:#009af9; stroke-width:3.2; stroke-opacity:1"/>
<line clip-path="url(#clip292)" x1="325.377" y1="128.109" x2="293.377" y2="128.109" style="stroke:#009af9; stroke-width:3.2; stroke-opacity:1"/>
<line clip-path="url(#clip292)" x1="338.675" y1="395.745" x2="306.675" y2="395.745" style="stroke:#009af9; stroke-width:3.2; stroke-opacity:1"/>
<line clip-path="url(#clip292)" x1="338.675" y1="175.312" x2="306.675" y2="175.312" style="stroke:#009af9; stroke-width:3.2; stroke-opacity:1"/>
<line clip-path="url(#clip292)" x1="355.175" y1="441.661" x2="323.175" y2="441.661" style="stroke:#009af9; stroke-width:3.2; stroke-opacity:1"/>
<line clip-path="url(#clip292)" x1="355.175" y1="231.431" x2="323.175" y2="231.431" style="stroke:#009af9; stroke-width:3.2; stroke-opacity:1"/>
<line clip-path="url(#clip292)" x1="373.919" y1="491.247" x2="341.919" y2="491.247" style="stroke:#009af9; stroke-width:3.2; stroke-opacity:1"/>
<line clip-path="url(#clip292)" x1="373.919" y1="292.036" x2="341.919" y2="292.036" style="stroke:#009af9; stroke-width:3.2; stroke-opacity:1"/>
<line clip-path="url(#clip292)" x1="395.189" y1="544.373" x2="363.189" y2="544.373" style="stroke:#009af9; stroke-width:3.2; stroke-opacity:1"/>
<line clip-path="url(#clip292)" x1="395.189" y1="356.968" x2="363.189" y2="356.968" style="stroke:#009af9; stroke-width:3.2; stroke-opacity:1"/>
<line clip-path="url(#clip292)" x1="418.479" y1="598.944" x2="386.479" y2="598.944" style="stroke:#009af9; stroke-width:3.2; stroke-opacity:1"/>
<line clip-path="url(#clip292)" x1="418.479" y1="423.665" x2="386.479" y2="423.665" style="stroke:#009af9; stroke-width:3.2; stroke-opacity:1"/>
<line clip-path="url(#clip292)" x1="443.713" y1="654.088" x2="411.713" y2="654.088" style="stroke:#009af9; stroke-width:3.2; stroke-opacity:1"/>
<line clip-path="url(#clip292)" x1="443.713" y1="491.064" x2="411.713" y2="491.064" style="stroke:#009af9; stroke-width:3.2; stroke-opacity:1"/>
<line clip-path="url(#clip292)" x1="470.583" y1="708.577" x2="438.583" y2="708.577" style="stroke:#009af9; stroke-width:3.2; stroke-opacity:1"/>
<line clip-path="url(#clip292)" x1="470.583" y1="557.662" x2="438.583" y2="557.662" style="stroke:#009af9; stroke-width:3.2; stroke-opacity:1"/>
<line clip-path="url(#clip292)" x1="498.936" y1="761.69" x2="466.936" y2="761.69" style="stroke:#009af9; stroke-width:3.2; stroke-opacity:1"/>
<line clip-path="url(#clip292)" x1="498.936" y1="622.578" x2="466.936" y2="622.578" style="stroke:#009af9; stroke-width:3.2; stroke-opacity:1"/>
<line clip-path="url(#clip292)" x1="528.572" y1="812.774" x2="496.572" y2="812.774" style="stroke:#009af9; stroke-width:3.2; stroke-opacity:1"/>
<line clip-path="url(#clip292)" x1="528.572" y1="685.013" x2="496.572" y2="685.013" style="stroke:#009af9; stroke-width:3.2; stroke-opacity:1"/>
<line clip-path="url(#clip292)" x1="559.359" y1="861.43" x2="527.359" y2="861.43" style="stroke:#009af9; stroke-width:3.2; stroke-opacity:1"/>
<line clip-path="url(#clip292)" x1="559.359" y1="744.482" x2="527.359" y2="744.482" style="stroke:#009af9; stroke-width:3.2; stroke-opacity:1"/>
<line clip-path="url(#clip292)" x1="591.168" y1="907.38" x2="559.168" y2="907.38" style="stroke:#009af9; stroke-width:3.2; stroke-opacity:1"/>
<line clip-path="url(#clip292)" x1="591.168" y1="800.644" x2="559.168" y2="800.644" style="stroke:#009af9; stroke-width:3.2; stroke-opacity:1"/>
<line clip-path="url(#clip292)" x1="623.904" y1="950.486" x2="591.904" y2="950.486" style="stroke:#009af9; stroke-width:3.2; stroke-opacity:1"/>
<line clip-path="url(#clip292)" x1="623.904" y1="853.328" x2="591.904" y2="853.328" style="stroke:#009af9; stroke-width:3.2; stroke-opacity:1"/>
<line clip-path="url(#clip292)" x1="657.493" y1="990.695" x2="625.493" y2="990.695" style="stroke:#009af9; stroke-width:3.2; stroke-opacity:1"/>
<line clip-path="url(#clip292)" x1="657.493" y1="902.472" x2="625.493" y2="902.472" style="stroke:#009af9; stroke-width:3.2; stroke-opacity:1"/>
<line clip-path="url(#clip292)" x1="691.876" y1="1028.03" x2="659.876" y2="1028.03" style="stroke:#009af9; stroke-width:3.2; stroke-opacity:1"/>
<line clip-path="url(#clip292)" x1="691.876" y1="948.103" x2="659.876" y2="948.103" style="stroke:#009af9; stroke-width:3.2; stroke-opacity:1"/>
<line clip-path="url(#clip292)" x1="727.014" y1="1062.56" x2="695.014" y2="1062.56" style="stroke:#009af9; stroke-width:3.2; stroke-opacity:1"/>
<line clip-path="url(#clip292)" x1="727.014" y1="990.303" x2="695.014" y2="990.303" style="stroke:#009af9; stroke-width:3.2; stroke-opacity:1"/>
<line clip-path="url(#clip292)" x1="762.879" y1="1094.38" x2="730.879" y2="1094.38" style="stroke:#009af9; stroke-width:3.2; stroke-opacity:1"/>
<line clip-path="url(#clip292)" x1="762.879" y1="1029.2" x2="730.879" y2="1029.2" style="stroke:#009af9; stroke-width:3.2; stroke-opacity:1"/>
<line clip-path="url(#clip292)" x1="799.455" y1="1123.63" x2="767.455" y2="1123.63" style="stroke:#009af9; stroke-width:3.2; stroke-opacity:1"/>
<line clip-path="url(#clip292)" x1="799.455" y1="1064.95" x2="767.455" y2="1064.95" style="stroke:#009af9; stroke-width:3.2; stroke-opacity:1"/>
<line clip-path="url(#clip292)" x1="836.737" y1="1150.45" x2="804.737" y2="1150.45" style="stroke:#009af9; stroke-width:3.2; stroke-opacity:1"/>
<line clip-path="url(#clip292)" x1="836.737" y1="1097.73" x2="804.737" y2="1097.73" style="stroke:#009af9; stroke-width:3.2; stroke-opacity:1"/>
<line clip-path="url(#clip292)" x1="874.727" y1="1174.97" x2="842.727" y2="1174.97" style="stroke:#009af9; stroke-width:3.2; stroke-opacity:1"/>
<line clip-path="url(#clip292)" x1="874.727" y1="1127.7" x2="842.727" y2="1127.7" style="stroke:#009af9; stroke-width:3.2; stroke-opacity:1"/>
<line clip-path="url(#clip292)" x1="913.434" y1="1197.36" x2="881.434" y2="1197.36" style="stroke:#009af9; stroke-width:3.2; stroke-opacity:1"/>
<line clip-path="url(#clip292)" x1="913.434" y1="1155.06" x2="881.434" y2="1155.06" style="stroke:#009af9; stroke-width:3.2; stroke-opacity:1"/>
<line clip-path="url(#clip292)" x1="952.876" y1="1217.74" x2="920.876" y2="1217.74" style="stroke:#009af9; stroke-width:3.2; stroke-opacity:1"/>
<line clip-path="url(#clip292)" x1="952.876" y1="1179.98" x2="920.876" y2="1179.98" style="stroke:#009af9; stroke-width:3.2; stroke-opacity:1"/>
<line clip-path="url(#clip292)" x1="993.072" y1="1236.28" x2="961.072" y2="1236.28" style="stroke:#009af9; stroke-width:3.2; stroke-opacity:1"/>
<line clip-path="url(#clip292)" x1="993.072" y1="1202.63" x2="961.072" y2="1202.63" style="stroke:#009af9; stroke-width:3.2; stroke-opacity:1"/>
<line clip-path="url(#clip292)" x1="1034.05" y1="1253.09" x2="1002.05" y2="1253.09" style="stroke:#009af9; stroke-width:3.2; stroke-opacity:1"/>
<line clip-path="url(#clip292)" x1="1034.05" y1="1223.18" x2="1002.05" y2="1223.18" style="stroke:#009af9; stroke-width:3.2; stroke-opacity:1"/>
<line clip-path="url(#clip292)" x1="1075.84" y1="1268.31" x2="1043.84" y2="1268.31" style="stroke:#009af9; stroke-width:3.2; stroke-opacity:1"/>
<line clip-path="url(#clip292)" x1="1075.84" y1="1241.78" x2="1043.84" y2="1241.78" style="stroke:#009af9; stroke-width:3.2; stroke-opacity:1"/>
<line clip-path="url(#clip292)" x1="1118.47" y1="1282.07" x2="1086.47" y2="1282.07" style="stroke:#009af9; stroke-width:3.2; stroke-opacity:1"/>
<line clip-path="url(#clip292)" x1="1118.47" y1="1258.6" x2="1086.47" y2="1258.6" style="stroke:#009af9; stroke-width:3.2; stroke-opacity:1"/>
<line clip-path="url(#clip292)" x1="1161.99" y1="1294.48" x2="1129.99" y2="1294.48" style="stroke:#009af9; stroke-width:3.2; stroke-opacity:1"/>
<line clip-path="url(#clip292)" x1="1161.99" y1="1273.77" x2="1129.99" y2="1273.77" style="stroke:#009af9; stroke-width:3.2; stroke-opacity:1"/>
<line clip-path="url(#clip292)" x1="1206.43" y1="1305.65" x2="1174.43" y2="1305.65" style="stroke:#009af9; stroke-width:3.2; stroke-opacity:1"/>
<line clip-path="url(#clip292)" x1="1206.43" y1="1287.42" x2="1174.43" y2="1287.42" style="stroke:#009af9; stroke-width:3.2; stroke-opacity:1"/>
<line clip-path="url(#clip292)" x1="1251.84" y1="1315.69" x2="1219.84" y2="1315.69" style="stroke:#009af9; stroke-width:3.2; stroke-opacity:1"/>
<line clip-path="url(#clip292)" x1="1251.84" y1="1299.68" x2="1219.84" y2="1299.68" style="stroke:#009af9; stroke-width:3.2; stroke-opacity:1"/>
<line clip-path="url(#clip292)" x1="1298.27" y1="1324.68" x2="1266.27" y2="1324.68" style="stroke:#009af9; stroke-width:3.2; stroke-opacity:1"/>
<line clip-path="url(#clip292)" x1="1298.27" y1="1310.67" x2="1266.27" y2="1310.67" style="stroke:#009af9; stroke-width:3.2; stroke-opacity:1"/>
<line clip-path="url(#clip292)" x1="1345.77" y1="1332.71" x2="1313.77" y2="1332.71" style="stroke:#009af9; stroke-width:3.2; stroke-opacity:1"/>
<line clip-path="url(#clip292)" x1="1345.77" y1="1320.5" x2="1313.77" y2="1320.5" style="stroke:#009af9; stroke-width:3.2; stroke-opacity:1"/>
<line clip-path="url(#clip292)" x1="1394.4" y1="1339.88" x2="1362.4" y2="1339.88" style="stroke:#009af9; stroke-width:3.2; stroke-opacity:1"/>
<line clip-path="url(#clip292)" x1="1394.4" y1="1329.26" x2="1362.4" y2="1329.26" style="stroke:#009af9; stroke-width:3.2; stroke-opacity:1"/>
<line clip-path="url(#clip292)" x1="1444.22" y1="1346.26" x2="1412.22" y2="1346.26" style="stroke:#009af9; stroke-width:3.2; stroke-opacity:1"/>
<line clip-path="url(#clip292)" x1="1444.22" y1="1337.05" x2="1412.22" y2="1337.05" style="stroke:#009af9; stroke-width:3.2; stroke-opacity:1"/>
<line clip-path="url(#clip292)" x1="1495.3" y1="1351.91" x2="1463.3" y2="1351.91" style="stroke:#009af9; stroke-width:3.2; stroke-opacity:1"/>
<line clip-path="url(#clip292)" x1="1495.3" y1="1343.96" x2="1463.3" y2="1343.96" style="stroke:#009af9; stroke-width:3.2; stroke-opacity:1"/>
<line clip-path="url(#clip292)" x1="1547.7" y1="1356.91" x2="1515.7" y2="1356.91" style="stroke:#009af9; stroke-width:3.2; stroke-opacity:1"/>
<line clip-path="url(#clip292)" x1="1547.7" y1="1350.07" x2="1515.7" y2="1350.07" style="stroke:#009af9; stroke-width:3.2; stroke-opacity:1"/>
<line clip-path="url(#clip292)" x1="1601.5" y1="1361.32" x2="1569.5" y2="1361.32" style="stroke:#009af9; stroke-width:3.2; stroke-opacity:1"/>
<line clip-path="url(#clip292)" x1="1601.5" y1="1355.46" x2="1569.5" y2="1355.46" style="stroke:#009af9; stroke-width:3.2; stroke-opacity:1"/>
<line clip-path="url(#clip292)" x1="1656.78" y1="1365.19" x2="1624.78" y2="1365.19" style="stroke:#009af9; stroke-width:3.2; stroke-opacity:1"/>
<line clip-path="url(#clip292)" x1="1656.78" y1="1360.19" x2="1624.78" y2="1360.19" style="stroke:#009af9; stroke-width:3.2; stroke-opacity:1"/>
<line clip-path="url(#clip292)" x1="1713.63" y1="1368.58" x2="1681.63" y2="1368.58" style="stroke:#009af9; stroke-width:3.2; stroke-opacity:1"/>
<line clip-path="url(#clip292)" x1="1713.63" y1="1364.33" x2="1681.63" y2="1364.33" style="stroke:#009af9; stroke-width:3.2; stroke-opacity:1"/>
<line clip-path="url(#clip292)" x1="1772.15" y1="1371.54" x2="1740.15" y2="1371.54" style="stroke:#009af9; stroke-width:3.2; stroke-opacity:1"/>
<line clip-path="url(#clip292)" x1="1772.15" y1="1367.95" x2="1740.15" y2="1367.95" style="stroke:#009af9; stroke-width:3.2; stroke-opacity:1"/>
<line clip-path="url(#clip292)" x1="1832.43" y1="1374.11" x2="1800.43" y2="1374.11" style="stroke:#009af9; stroke-width:3.2; stroke-opacity:1"/>
<line clip-path="url(#clip292)" x1="1832.43" y1="1371.09" x2="1800.43" y2="1371.09" style="stroke:#009af9; stroke-width:3.2; stroke-opacity:1"/>
<line clip-path="url(#clip292)" x1="1894.59" y1="1376.33" x2="1862.59" y2="1376.33" style="stroke:#009af9; stroke-width:3.2; stroke-opacity:1"/>
<line clip-path="url(#clip292)" x1="1894.59" y1="1373.8" x2="1862.59" y2="1373.8" style="stroke:#009af9; stroke-width:3.2; stroke-opacity:1"/>
<line clip-path="url(#clip292)" x1="1958.76" y1="1378.24" x2="1926.76" y2="1378.24" style="stroke:#009af9; stroke-width:3.2; stroke-opacity:1"/>
<line clip-path="url(#clip292)" x1="1958.76" y1="1376.14" x2="1926.76" y2="1376.14" style="stroke:#009af9; stroke-width:3.2; stroke-opacity:1"/>
<line clip-path="url(#clip292)" x1="2025.05" y1="1379.88" x2="1993.05" y2="1379.88" style="stroke:#009af9; stroke-width:3.2; stroke-opacity:1"/>
<line clip-path="url(#clip292)" x1="2025.05" y1="1378.15" x2="1993.05" y2="1378.15" style="stroke:#009af9; stroke-width:3.2; stroke-opacity:1"/>
<line clip-path="url(#clip292)" x1="2093.62" y1="1381.28" x2="2061.62" y2="1381.28" style="stroke:#009af9; stroke-width:3.2; stroke-opacity:1"/>
<line clip-path="url(#clip292)" x1="2093.62" y1="1379.85" x2="2061.62" y2="1379.85" style="stroke:#009af9; stroke-width:3.2; stroke-opacity:1"/>
<line clip-path="url(#clip292)" x1="2164.62" y1="1382.46" x2="2132.62" y2="1382.46" style="stroke:#009af9; stroke-width:3.2; stroke-opacity:1"/>
<line clip-path="url(#clip292)" x1="2164.62" y1="1381.3" x2="2132.62" y2="1381.3" style="stroke:#009af9; stroke-width:3.2; stroke-opacity:1"/>
<line clip-path="url(#clip292)" x1="2238.24" y1="1383.46" x2="2206.24" y2="1383.46" style="stroke:#009af9; stroke-width:3.2; stroke-opacity:1"/>
<line clip-path="url(#clip292)" x1="2238.24" y1="1382.52" x2="2206.24" y2="1382.52" style="stroke:#009af9; stroke-width:3.2; stroke-opacity:1"/>
<line clip-path="url(#clip292)" x1="2308.91" y1="1384.24" x2="2276.91" y2="1384.24" style="stroke:#009af9; stroke-width:3.2; stroke-opacity:1"/>
<line clip-path="url(#clip292)" x1="2308.91" y1="1383.47" x2="2276.91" y2="1383.47" style="stroke:#009af9; stroke-width:3.2; stroke-opacity:1"/>
</svg>
